<?xml version="1.0" encoding="UTF-8" standalone="no"?>
<!-- Created with Inkscape (http://www.inkscape.org/) -->

<svg
   version="1.1"
   id="svg2"
   width="816"
   height="1056"
   viewBox="0 0 816 1056"
   sodipodi:docname="Dolce Neve Logo Redondo.ai"
   xmlns:inkscape="http://www.inkscape.org/namespaces/inkscape"
   xmlns:sodipodi="http://sodipodi.sourceforge.net/DTD/sodipodi-0.dtd"
   xmlns="http://www.w3.org/2000/svg"
   xmlns:svg="http://www.w3.org/2000/svg">
  <defs
     id="defs6">
    <clipPath
       clipPathUnits="userSpaceOnUse"
       id="clipPath16">
      <path
         d="M 0,792 H 612 V 0 H 0 Z"
         id="path14" />
    </clipPath>
  </defs>
  <sodipodi:namedview
     id="namedview4"
     pagecolor="#ffffff"
     bordercolor="#000000"
     borderopacity="0.25"
     inkscape:showpageshadow="2"
     inkscape:pageopacity="0.0"
     inkscape:pagecheckerboard="0"
     inkscape:deskcolor="#d1d1d1" />
  <g
     id="g8"
     inkscape:groupmode="layer"
     inkscape:label="Dolce Neve Logo Redondo"
     transform="matrix(1.3333333,0,0,-1.3333333,0,1056)">
    <g
       id="g10">
      <g
         id="g12"
         clip-path="url(#clipPath16)">
        <g
           id="g18"
           transform="translate(334.3396,454.7103)">
          <path
             d="m 0,0 c 13.456,7.808 28.815,10.869 45.637,-0.607 2.393,-1.499 5.4,-2.079 8.498,-1.227 4.085,1.123 7.171,4.719 7.641,8.928 0.485,4.337 -1.586,8.112 -4.812,10.185 l -0.733,0.433 C 52.845,19.624 48.056,20.674 41.747,20.864 25.323,21.359 10.007,14.661 -1.589,1.991 -2.589,0.898 -1.281,-0.743 0,0"
             style="fill:#11153f;fill-opacity:1;fill-rule:nonzero;stroke:none"
             id="path20" />
        </g>
        <g
           id="g22"
           transform="translate(232.1062,399.2552)">
          <path
             d="m 0,0 c -2.136,-0.9 -4.232,-1.204 -6.243,3.561 l -14.828,35.158 c -2.01,4.764 -0.329,6.054 1.807,6.955 l 1.971,0.831 C -8.585,50.179 -0.063,39.839 4.579,28.831 9.221,17.823 10.679,4.505 1.972,0.832 Z M 19.036,34.929 C 11.554,52.673 -2.208,59.835 -19.787,52.421 L -39.585,44.07 C -50.1,39.636 -57.596,28.732 -54.478,21.339 c 1.872,-4.436 6.305,-6.919 10.249,-5.256 8.79,3.707 -0.994,18.643 4.182,20.826 2.382,1.004 5.174,-4.011 6.942,-8.2 l 9.112,-21.605 c 4.573,-10.843 1.073,-14.932 2.632,-18.628 0.624,-1.479 2.497,-3.398 6.03,-1.909 l 19.798,8.351 c 17.578,7.414 22.054,22.268 14.569,40.011"
             style="fill:#11153f;fill-opacity:1;fill-rule:nonzero;stroke:none"
             id="path24" />
        </g>
        <g
           id="g26"
           transform="translate(273.3464,431.5101)">
          <path
             d="M 0,0 C -0.979,8.413 1.034,13.493 5.551,14.018 14.406,15.047 18.288,-1.376 18.997,-7.486 19.913,-15.367 17.812,-20.457 13.384,-20.972 4.617,-21.99 0.637,-5.49 0,0 m 12.204,-27.032 c 14.258,1.656 22.141,11.816 20.465,26.25 C 30.992,13.652 20.988,21.734 6.731,20.079 -7.525,18.423 -15.411,8.263 -13.732,-6.172 c 1.675,-14.434 11.677,-22.516 25.936,-20.86"
             style="fill:#11153f;fill-opacity:1;fill-rule:nonzero;stroke:none"
             id="path28" />
        </g>
        <g
           id="g30"
           transform="translate(357.3698,444.6663)">
          <path
             d="m 0,0 c 8.183,-1.324 4.317,-14.606 12.678,-15.959 3.697,-0.599 6.219,2.154 6.93,6.556 C 20.55,-3.596 17.132,3.188 2.786,5.51 -11.381,7.803 -21.736,0.176 -24.058,-14.168 c -2.321,-14.345 5.101,-24.848 19.269,-27.141 11.088,-1.794 20.689,3.968 21.417,8.456 0.084,0.528 -0.139,1.376 -1.107,1.534 -1.936,0.313 -5.994,-3.003 -13.475,-1.793 C -6.49,-31.731 -11,-23.325 -9.163,-11.974 -7.81,-3.612 -4.488,0.727 0,0"
             style="fill:#11153f;fill-opacity:1;fill-rule:nonzero;stroke:none"
             id="path32" />
        </g>
        <g
           id="g34"
           transform="translate(326.5329,389.9212)">
          <path
             d="m 0,0 c -4.499,-0.147 -8.011,-1.341 -6.675,-7.05 l 8.061,-32.684 c 0.124,-0.492 0.542,-0.842 1.048,-0.884 1.69,-0.141 3.583,-0.398 5.625,-0.84 1.707,-0.369 3.261,-0.813 4.651,-1.28 0.514,-0.173 1.07,0.019 1.365,0.475 l 16.986,26.284 c 5.493,8.451 12.4,8.463 13.502,13.655 0.7,3.303 -2.533,5.88 -6.465,6.715 C 32.355,5.609 28.261,3.355 25.287,-1.356 L 6.126,-31.424 3.249,-18.054 C 1.602,-10.717 5.9,-8.032 7.135,-4.376 8.688,0.22 4.277,0.14 0,0"
             style="fill:#11153f;fill-opacity:1;fill-rule:nonzero;stroke:none"
             id="path36" />
        </g>
        <g
           id="g38"
           transform="translate(412.8923,421.2689)">
          <path
             d="m 0,0 c -3.906,-6.906 -11.403,-4.406 -18.329,-8.684 0.431,2.933 1.511,6.111 3.353,9.371 4.17,7.372 8.791,10.289 13.136,7.831 C 1.807,6.455 1.404,2.483 0,0 m 2.3,12.937 c -12.495,7.067 -24.853,3.506 -32.007,-9.142 -7.154,-12.649 -3.838,-25.073 8.656,-32.141 6.616,-3.742 13.375,-4.097 17.753,-2.714 l -0.012,-0.011 c 0,0 6.608,1.673 7.171,7.114 l -0.006,-0.006 c 0.215,1.557 -0.522,3.203 -2.166,4 -1.212,0.588 -2.719,0.453 -3.812,-0.336 -0.85,-0.613 -1.357,-1.453 -1.541,-2.34 -0.365,-1.752 -1.928,-2.692 -3.705,-2.485 -1.556,0.181 -3.22,0.74 -4.924,1.985 -4.39,3.208 -4.485,6.511 -3.389,8.451 4.126,7.294 22.088,-3.684 28.584,7.8 C 16.501,-0.524 11.688,7.626 2.3,12.937"
             style="fill:#11153f;fill-opacity:1;fill-rule:nonzero;stroke:none"
             id="path40" />
        </g>
        <g
           id="g42"
           transform="translate(290.5593,359.4446)">
          <path
             d="m 0,0 c -1.624,2.22 -2.978,5.026 -3.88,8.382 -2.038,7.59 -0.88,12.526 3.594,13.728 3.755,1.009 6.073,-1.881 6.761,-4.437 C 8.385,10.563 1.798,7.337 0,0 M 24.619,4.337 V 4.329 c -0.871,1.17 -2.43,1.779 -4.036,1.236 -1.185,-0.4 -2.094,-1.469 -2.304,-2.703 -0.163,-0.958 0.048,-1.843 0.503,-2.55 0.9,-1.397 0.478,-3.036 -0.833,-4.055 -1.146,-0.893 -2.612,-1.607 -4.55,-1.891 -4.992,-0.735 -7.204,1.388 -7.74,3.385 -2.017,7.511 17.009,11.937 13.833,23.762 -1.76,6.551 -10.248,8.812 -19.916,6.215 -12.864,-3.456 -18.722,-13.853 -15.224,-26.876 3.499,-13.024 13.778,-19.086 26.642,-15.63 6.813,1.83 11.516,5.993 13.511,9.757 v -0.015 c 0,0 3.282,5.406 0.114,9.373"
             style="fill:#11153f;fill-opacity:1;fill-rule:nonzero;stroke:none"
             id="path44" />
        </g>
        <g
           id="g46"
           transform="translate(386.2038,360.8997)">
          <path
             d="m 0,0 c -2.743,-6.739 -9.856,-5.344 -15.653,-10.046 0.047,2.718 0.657,5.735 1.952,8.916 2.929,7.193 6.79,10.389 11.03,8.662 C 0.889,6.083 0.987,2.423 0,0 m 0.577,12.037 c -12.193,4.965 -23.016,0.278 -28.043,-12.065 -5.025,-12.344 -0.554,-23.257 11.64,-28.221 6.456,-2.629 12.645,-2.161 16.466,-0.39 L 0.631,-28.65 c 0,0 5.813,2.296 5.688,7.311 l -0.005,-0.006 c 0.014,1.442 -0.849,2.853 -2.438,3.384 -1.172,0.393 -2.526,0.095 -3.429,-0.752 -0.701,-0.657 -1.064,-1.479 -1.128,-2.308 -0.126,-1.636 -1.437,-2.675 -3.078,-2.695 -1.436,-0.018 -3.015,0.296 -4.712,1.229 -4.369,2.404 -4.842,5.396 -4.072,7.29 2.898,7.118 20.523,-0.764 25.086,10.443 2.528,6.21 -2.804,13.061 -11.966,16.791"
             style="fill:#11153f;fill-opacity:1;fill-rule:nonzero;stroke:none"
             id="path48" />
        </g>
        <g
           id="g50"
           transform="translate(333.654,341.39)">
          <path
             d="m 0,0 c -5.774,1.479 -12.275,-0.321 -12.275,-0.321 -11.746,-3.625 -22.08,-5.653 -29.352,-5.415 -22.494,1.17 -25.709,26.264 -28.728,32.153 -3.846,10.812 -9.35,13.112 -16.835,10.45 -5.973,-2.124 -9.897,-6.417 -11.749,-11.505 -2.544,4.035 -5.868,5.239 -10.707,3.518 -3.78,-1.345 -7.703,-4.443 -6.573,-7.619 1.345,-3.781 7.115,-4.199 10.477,-13.65 3.55,-9.979 0.192,-13.472 1.403,-16.876 0.485,-1.361 2.068,-3.182 5.32,-2.025 l 12.097,4.303 c 3.251,1.156 3.33,3.568 2.846,4.929 -1.211,3.404 -6.02,3.993 -9.57,13.972 -2.528,7.107 -0.936,15.084 4.508,17.021 3.704,1.317 6.279,-3.167 8.699,-9.972 4.25,-11.946 12.335,-33.585 33.86,-35.475 9.514,-0.836 27.325,2.83 39.818,6.057 0.715,0.184 1.464,0.344 2.221,0.464 3.475,0.268 6.517,-2.337 6.786,-5.813 0.232,-2.998 -1.671,-5.668 -4.428,-6.518 l -0.003,-0.006 c -3.771,-1.212 -7.679,-0.467 -11.147,-0.885 -0.026,-0.002 -0.051,0.004 -0.077,0.002 -0.058,-0.005 -0.11,-0.024 -0.166,-0.03 -0.114,-0.016 -0.235,-0.022 -0.348,-0.04 l 0.002,-0.022 c -3.226,-0.518 -5.58,-3.406 -5.323,-6.722 0.27,-3.494 3.321,-6.106 6.814,-5.836 0.042,0.004 0.079,0.017 0.12,0.022 l 0.001,-0.013 1.437,0.213 c 15,3.174 26.369,13.123 22.223,24.935 C 9.06,-4.181 4.292,-1.101 0,0"
             style="fill:#11153f;fill-opacity:1;fill-rule:nonzero;stroke:none"
             id="path52" />
        </g>
        <g
           id="g54"
           transform="translate(254.4333,465.1771)">
          <path
             d="m 0,0 c 0,0 5.385,-6.771 23.658,-5.472 7.446,0.529 13.309,-0.543 17.364,-1.773 2.122,-0.704 17.725,-6.53 18.874,-25.442 0.012,-0.555 0.066,-1.085 0.053,-1.656 -0.008,-1.803 -0.094,-3.463 -0.238,-4.996 -0.007,-0.06 -0.012,-0.12 -0.019,-0.181 -0.046,-0.473 -0.106,-0.918 -0.163,-1.367 -0.229,-1.629 -0.549,-3.327 -0.978,-5.106 -1.644,-6.202 -4.298,-9.289 -5.49,-11.338 -0.315,-0.537 -0.274,-1.144 0,-1.617 0.357,-0.617 1.128,-0.777 1.404,-0.82 3.16,0.31 6.671,0.501 10.481,0.47 3.988,-0.033 7.647,-0.305 10.919,-0.695 1.287,-0.014 2.076,1.376 1.434,2.491 -1.782,3.095 -6.291,7.179 -6.225,21.628 C 70.97,-19.307 63.219,-9.74 57.381,-5.211 45.437,3.711 32.345,4.111 21.573,3.949 13.133,3.822 8.828,9.092 8.828,9.092 L 8.813,9.076 C 6.398,11.278 2.673,11.321 0.238,9.055 -2.326,6.667 -2.471,2.653 -0.083,0.089 Z"
             style="fill:#11153f;fill-opacity:1;fill-rule:nonzero;stroke:none"
             id="path56" />
        </g>
        <g
           id="g58"
           transform="translate(258.0212,497.8655)">
          <path
             d="m 0,0 -0.666,1.346 c -0.665,-1.782 -1.651,-2.942 -3.359,-3.751 -0.931,-0.442 -3.113,-1.314 -5.842,-0.31 -1.325,0.507 -3.652,1.838 -5.218,5.136 -0.966,2.031 -1.387,4.432 -0.939,6.61 0.265,1.234 1.19,3.969 4.284,5.436 0.43,0.206 1.426,0.624 2.732,0.715 1.187,0.068 3.616,-0.082 5.919,-2.368 l -2.188,-2.419 c -0.624,0.644 -2.55,2.637 -5.211,1.375 -0.519,-0.249 -1.685,-0.911 -2.2,-2.457 -0.359,-1.139 -0.495,-2.865 0.674,-5.326 0.313,-0.654 1.449,-3.05 3.928,-3.754 1.069,-0.297 2.028,-0.144 3.003,0.318 1.514,0.719 2.488,2.123 2.365,3.889 -0.021,0.377 -0.095,0.813 -0.35,1.579 L -6.876,4.211 -8.118,6.831 -1.696,9.879 2.44,1.16 Z"
             style="fill:#97b6b7;fill-opacity:1;fill-rule:nonzero;stroke:none"
             id="path60" />
        </g>
        <g
           id="g62"
           transform="translate(264.2605,500.3802)">
          <path
             d="M 0,0 -5.295,16.825 6.162,20.429 7.046,17.617 -1.443,14.946 -0.198,10.992 7.584,13.438 8.438,10.721 0.659,8.274 2.075,3.77 11.136,6.619 12.027,3.784 Z"
             style="fill:#97b6b7;fill-opacity:1;fill-rule:nonzero;stroke:none"
             id="path64" />
        </g>
        <g
           id="g66"
           transform="translate(279.3884,504.7737)">
          <path
             d="M 0,0 -3.28,17.346 -0.156,17.94 2.567,3.542 9.151,4.79 9.708,1.843 Z"
             style="fill:#97b6b7;fill-opacity:1;fill-rule:nonzero;stroke:none"
             id="path68" />
        </g>
        <g
           id="g70"
           transform="translate(297.0818,521.8831)">
          <path
             d="m 0,0 -1.767,-8.268 4.646,0.325 z m 5.135,-14.153 -1.216,3.374 -6.316,-0.439 -0.736,-3.51 -3.384,-0.235 4.461,18.002 3.575,0.247 6.978,-17.204 z"
             style="fill:#97b6b7;fill-opacity:1;fill-rule:nonzero;stroke:none"
             id="path72" />
        </g>
        <g
           id="g74"
           transform="translate(313.8972,522.2659)">
          <path
             d="M 0,0 -0.565,-14.663 -3.719,-14.542 -3.15,0.121 -7.735,0.298 -7.62,3.271 4.772,2.795 4.658,-0.179 Z"
             style="fill:#97b6b7;fill-opacity:1;fill-rule:nonzero;stroke:none"
             id="path76" />
        </g>
        <g
           id="g78"
           transform="translate(321.0163,507.0882)">
          <path
             d="M 0,0 2.763,17.442 14.61,15.549 14.148,12.634 5.368,14.036 4.721,9.935 12.768,8.647 12.323,5.833 4.272,7.119 3.533,2.449 12.902,0.951 12.438,-1.988 Z"
             style="fill:#97b6b7;fill-opacity:1;fill-rule:nonzero;stroke:none"
             id="path80" />
        </g>
        <g
           id="g82"
           transform="translate(348.4323,515.6976)">
          <path
             d="m 0,0 c -0.421,0.515 -0.998,0.842 -2.279,1.222 l -2.452,0.721 -1.558,-5.273 1.074,-0.318 c 1.767,-0.519 2.865,-0.845 3.719,-0.654 0.536,0.129 1.475,0.53 1.882,1.896 C 0.512,-1.976 0.763,-0.954 0,0 m -3.016,-13.992 -1.327,7.222 -2.726,0.804 -1.856,-6.28 -3.003,0.887 5.002,16.921 6.622,-1.956 C 0.43,3.392 2.585,2.677 3.438,0.262 3.995,-1.311 3.609,-2.785 3.448,-3.336 3.368,-3.602 3.098,-4.432 2.591,-5.142 2.132,-5.763 0.922,-6.996 -1.11,-7.046 l 1.554,-7.965 z"
             style="fill:#97b6b7;fill-opacity:1;fill-rule:nonzero;stroke:none"
             id="path84" />
        </g>
        <g
           id="g86"
           transform="translate(351.8982,499.3499)">
          <path
             d="M 0,0 6.628,16.371 9.51,15.205 2.885,-1.166 Z"
             style="fill:#97b6b7;fill-opacity:1;fill-rule:nonzero;stroke:none"
             id="path88" />
        </g>
        <g
           id="g90"
           transform="translate(370.8923,506.6019)">
          <path
             d="m 0,0 -5.83,-6.124 4.134,-2.152 z m -3.015,-14.748 0.721,3.513 -5.618,2.926 -2.464,-2.609 -3.013,1.569 13.224,13.015 3.18,-1.655 -3.041,-18.317 z"
             style="fill:#97b6b7;fill-opacity:1;fill-rule:nonzero;stroke:none"
             id="path92" />
        </g>
        <g
           id="g94"
           transform="translate(209.4675,325.3909)">
          <path
             d="M 0,0 C 0.609,1.251 -0.156,2.331 -0.812,3.265 L -2.12,5.114 -6.808,1.802 -5.58,0.062 c 0.115,-0.166 0.265,-0.336 0.38,-0.501 0.936,-1.205 1.725,-1.469 2.482,-1.402 0.321,0.035 0.972,0.168 1.66,0.654 C -0.637,-0.89 -0.239,-0.475 0,0 m -4.246,-4.594 c -1.534,0.589 -2.405,1.784 -3.298,3.048 l -1.331,1.887 -4.593,-3.247 -1.708,2.417 L -1.664,9.06 1.413,4.702 C 1.634,4.39 1.872,4.093 2.072,3.769 2.435,3.174 3.471,1.463 2.867,-0.692 2.399,-2.424 1.163,-3.354 0.627,-3.731 -1.479,-5.218 -3.307,-4.947 -4.246,-4.594"
             style="fill:#97b6b7;fill-opacity:1;fill-rule:nonzero;stroke:none"
             id="path96" />
        </g>
        <g
           id="g98"
           transform="translate(217.7468,316.8489)">
          <path
             d="m 0,0 -7.104,-3.524 2.95,-3.222 z m -7.396,-12.022 1.766,2.862 -4.013,4.378 -3.006,-1.507 -2.15,2.344 L 1.03,3.28 3.301,0.804 -5.265,-14.352 Z"
             style="fill:#97b6b7;fill-opacity:1;fill-rule:nonzero;stroke:none"
             id="path100" />
        </g>
        <g
           id="g102"
           transform="translate(225.0163,293.4319)">
          <path
             d="m 0,0 c -2.541,-0.074 -4.52,1.546 -5.07,2.005 -0.721,0.6 -3.015,2.576 -3.157,5.836 -0.011,0.406 0.021,0.898 0.107,1.313 L -5.056,8.948 C -5.211,7.676 -5.114,5.762 -2.876,3.896 -2.773,3.81 -2.344,3.45 -1.907,3.241 -1.604,3.08 -0.132,2.429 0.857,3.618 0.963,3.742 1.231,4.099 1.264,4.561 1.331,5.479 0.365,6.56 -0.117,7.208 l -1.16,1.546 c -0.501,0.662 -1.052,1.366 -1.346,2.129 -0.315,0.78 -0.81,2.567 0.722,4.401 0.238,0.289 0.963,1.087 2.022,1.485 1.36,0.508 3.616,0.52 6.077,-1.532 1.084,-0.904 3.069,-2.865 2.759,-6.663 L 5.865,8.68 C 6.013,9.625 6.201,11.604 4.293,13.196 4.173,13.297 2.656,14.593 1.331,14.019 1.063,13.906 0.878,13.756 0.713,13.559 0.533,13.341 0.437,13.12 0.389,12.853 0.248,12.087 0.783,11.365 1.69,10.182 L 2.706,8.845 C 3.634,7.614 4.608,6.191 4.594,4.528 4.605,3.845 4.487,2.968 3.513,1.799 2.553,0.647 1.473,0.053 0,0"
             style="fill:#97b6b7;fill-opacity:1;fill-rule:nonzero;stroke:none"
             id="path104" />
        </g>
        <g
           id="g106"
           transform="translate(242.0154,296.9066)">
          <path
             d="M 0,0 -7.453,-11.558 -9.943,-9.955 -2.491,1.604 -6.113,3.937 -4.6,6.28 5.187,-0.024 3.677,-2.368 Z"
             style="fill:#97b6b7;fill-opacity:1;fill-rule:nonzero;stroke:none"
             id="path108" />
        </g>
        <g
           id="g110"
           transform="translate(241.8855,281.0794)">
          <path
             d="M 0,0 7.956,14.487 10.512,13.082 2.553,-1.404 Z"
             style="fill:#97b6b7;fill-opacity:1;fill-rule:nonzero;stroke:none"
             id="path112" />
        </g>
        <g
           id="g114"
           transform="translate(261.7126,274.6048)">
          <path
             d="m 0,0 c -1.06,-0.627 -3.351,-1.66 -6.289,-0.444 -0.497,0.206 -1.66,0.736 -2.673,1.864 -1.316,1.51 -2.694,4.514 -0.831,9.042 0.339,0.824 1.243,3.012 3.419,4.473 1.14,0.768 3.601,1.984 6.811,0.656 C 3.23,14.437 4.104,12.376 4.364,11.127 4.538,10.194 4.515,9.316 4.432,8.412 L 1.417,8.795 c 0.059,0.203 0.183,0.736 0.126,1.369 -0.111,1.314 -0.978,2.329 -2.144,2.789 -0.83,0.341 -1.515,0.32 -1.869,0.288 C -3.777,13.124 -5.626,12.164 -6.804,9.305 -6.983,8.869 -7.711,7.04 -7.426,5.324 c 0.104,-0.574 0.295,-1.11 0.592,-1.56 0.61,-0.991 1.455,-1.414 1.847,-1.576 1.139,-0.471 2.184,-0.344 3.262,0.274 0.442,0.247 0.857,0.609 0.963,0.691 0.164,0.162 0.297,0.31 0.583,0.649 L 1.943,1.604 C 1.313,0.951 0.771,0.466 0,0"
             style="fill:#97b6b7;fill-opacity:1;fill-rule:nonzero;stroke:none"
             id="path116" />
        </g>
        <g
           id="g118"
           transform="translate(278.7409,269.764)">
          <path
             d="m 0,0 c -0.969,-0.762 -3.104,-2.093 -6.181,-1.283 -0.518,0.138 -1.743,0.509 -2.897,1.493 -1.505,1.315 -3.272,4.11 -2.023,8.851 0.23,0.862 0.833,3.153 2.797,4.89 1.031,0.919 3.313,2.453 6.669,1.567 C 1.292,14.749 2.429,12.823 2.853,11.619 3.15,10.718 3.241,9.844 3.283,8.937 L 0.241,8.913 c 0.03,0.209 0.082,0.754 -0.055,1.372 -0.287,1.29 -1.282,2.182 -2.5,2.477 -0.867,0.229 -1.546,0.117 -1.891,0.038 -1.28,-0.294 -2.988,-1.493 -3.777,-4.487 -0.122,-0.454 -0.601,-2.365 -0.089,-4.029 0.176,-0.555 0.439,-1.059 0.792,-1.469 0.739,-0.898 1.632,-1.204 2.041,-1.313 1.192,-0.315 2.214,-0.05 3.2,0.71 0.406,0.306 0.768,0.718 0.866,0.815 0.138,0.18 0.253,0.345 0.488,0.719 L 1.717,1.855 C 1.175,1.122 0.703,0.568 0,0"
             style="fill:#97b6b7;fill-opacity:1;fill-rule:nonzero;stroke:none"
             id="path120" />
        </g>
        <g
           id="g122"
           transform="translate(283.7575,266.4017)">
          <path
             d="M 0,0 2.177,16.403 13.33,14.926 12.968,12.185 4.7,13.279 4.19,9.423 11.767,8.418 11.416,5.769 3.837,6.772 3.254,2.382 12.075,1.213 11.71,-1.552 Z"
             style="fill:#97b6b7;fill-opacity:1;fill-rule:nonzero;stroke:none"
             id="path124" />
        </g>
        <g
           id="g126"
           transform="translate(308.032,277.8792)">
          <path
             d="m 0,0 c -0.513,0.356 -1.116,0.504 -2.37,0.516 l -2.401,0.026 -0.049,-5.153 1.054,-0.012 c 1.725,-0.018 2.8,-0.026 3.522,0.362 0.45,0.254 1.195,0.855 1.21,2.191 C 0.969,-1.648 0.934,-0.665 0,0 m 0.874,-13.383 -3.053,6.169 -2.665,0.027 -0.061,-6.136 -2.936,0.032 0.164,16.533 6.476,-0.068 C -0.486,3.165 1.643,3.074 3.035,1.116 3.939,-0.156 3.972,-1.587 3.966,-2.126 3.963,-2.382 3.934,-3.2 3.657,-3.972 3.403,-4.649 2.629,-6.068 0.807,-6.637 l 3.451,-6.781 z"
             style="fill:#97b6b7;fill-opacity:1;fill-rule:nonzero;stroke:none"
             id="path128" />
        </g>
        <g
           id="g130"
           transform="translate(316.7351,264.8792)">
          <path
             d="m 0,0 -1.363,16.501 2.9,0.238 1.363,-16.5 z"
             style="fill:#97b6b7;fill-opacity:1;fill-rule:nonzero;stroke:none"
             id="path132" />
        </g>
        <g
           id="g134"
           transform="translate(328.3484,279.9993)">
          <path
             d="m 0,0 -0.833,-7.889 4.305,0.763 z m 6.189,-12.696 -1.469,3.026 -5.851,-1.036 -0.342,-3.345 -3.135,-0.556 2.388,17.239 3.313,0.586 8.212,-15.361 z"
             style="fill:#97b6b7;fill-opacity:1;fill-rule:nonzero;stroke:none"
             id="path136" />
        </g>
        <g
           id="g138"
           transform="translate(349.5398,271.3694)">
          <path
             d="m 0,0 -5.359,15.655 2.758,0.946 5.36,-15.659 z"
             style="fill:#97b6b7;fill-opacity:1;fill-rule:nonzero;stroke:none"
             id="path140" />
        </g>
        <g
           id="g142"
           transform="translate(357.5329,289.2503)">
          <path
             d="m 0,0 5.562,-12.584 -2.708,-1.195 -5.562,12.584 -3.94,-1.741 -1.127,2.55 10.649,4.705 1.128,-2.552 z"
             style="fill:#97b6b7;fill-opacity:1;fill-rule:nonzero;stroke:none"
             id="path144" />
        </g>
        <g
           id="g146"
           transform="translate(367.7712,294.3353)">
          <path
             d="m 0,0 1.896,-7.702 3.787,2.179 z m 10.126,-9.84 -2.408,2.35 -5.145,-2.962 0.816,-3.266 -2.756,-1.587 -3.61,17.028 2.913,1.678 12.928,-11.663 z"
             style="fill:#97b6b7;fill-opacity:1;fill-rule:nonzero;stroke:none"
             id="path148" />
        </g>
        <g
           id="g150"
           transform="translate(384.2927,288.6351)">
          <path
             d="m 0,0 -9.841,13.317 2.397,1.77 L 0.727,4.034 5.776,7.756 7.449,5.491 Z"
             style="fill:#97b6b7;fill-opacity:1;fill-rule:nonzero;stroke:none"
             id="path152" />
        </g>
        <g
           id="g154"
           transform="translate(395.0163,296.9857)">
          <path
             d="M 0,0 -10.915,12.408 -8.728,14.333 2.188,1.929 Z"
             style="fill:#97b6b7;fill-opacity:1;fill-rule:nonzero;stroke:none"
             id="path156" />
        </g>
        <g
           id="g158"
           transform="translate(395.3132,316.0687)">
          <path
             d="m 0,0 4.081,-6.793 2.977,3.194 z m 12.579,-6.41 -2.995,1.534 -4.049,-4.34 1.743,-2.877 -2.17,-2.326 -8.464,15.188 2.291,2.455 15.796,-7.323 z"
             style="fill:#97b6b7;fill-opacity:1;fill-rule:nonzero;stroke:none"
             id="path160" />
        </g>
        <g
           id="g162"
           transform="translate(418.489,323.4974)">
          <path
             d="m 0,0 -13.468,1.036 9.575,-6.548 -1.667,-2.362 -13.511,9.549 1.54,2.179 13.577,-1.004 -9.737,6.442 1.677,2.383 13.513,-9.552 z"
             style="fill:#97b6b7;fill-opacity:1;fill-rule:nonzero;stroke:none"
             id="path164" />
        </g>
        <g
           id="g166"
           transform="translate(413.6745,341.97)">
          <path
             d="m 0,0 5.7,-5.503 2.047,3.866 z m 13.801,-2.908 -3.286,0.697 -2.78,-5.256 2.426,-2.323 -1.489,-2.817 -12.108,12.469 1.573,2.977 17.145,-2.953 z"
             style="fill:#97b6b7;fill-opacity:1;fill-rule:nonzero;stroke:none"
             id="path168" />
        </g>
        <g
           id="g170"
           transform="translate(385.9216,492.9583)">
          <path
             d="m 0,0 c 0,-1.799 -1.458,-3.257 -3.256,-3.257 -1.799,0 -3.257,1.458 -3.257,3.257 0,1.798 1.458,3.256 3.257,3.256 C -1.458,3.256 0,1.798 0,0"
             style="fill:#97b6b7;fill-opacity:1;fill-rule:nonzero;stroke:none"
             id="path172" />
        </g>
        <g
           id="g174"
           transform="translate(237.8239,492.9583)">
          <path
             d="m 0,0 c 0,-1.799 -1.458,-3.257 -3.256,-3.257 -1.799,0 -3.257,1.458 -3.257,3.257 0,1.798 1.458,3.256 3.257,3.256 C -1.458,3.256 0,1.798 0,0"
             style="fill:#97b6b7;fill-opacity:1;fill-rule:nonzero;stroke:none"
             id="path176" />
        </g>
        <g
           id="g178"
           transform="translate(437.6941,337.9769)">
          <path
             d="m 0,0 c -0.911,-3.438 -2.128,-6.726 -3.525,-9.91 -20.145,-37.57 -56.343,-65.888 -99.635,-74.664 -65.71,-13.144 -133.098,21.714 -160.952,82.468 -12.948,28.442 -15.724,59.665 -9.676,89.015 l 0.055,0.041 c 2.264,9.14 7.876,21.032 12.096,29.708 2.124,4.367 4.029,8.582 7.637,11.786 2.523,2.24 5.227,4.333 8.084,6.117 1.664,1.039 3.837,2.063 5.824,0.773 2.498,-1.622 3.393,1.542 5.398,1.484 3.53,-0.1 7.048,0.616 10.614,0.244 0.839,-0.088 2.492,-0.428 2.601,1.167 0.079,1.176 -1.203,1.354 -2.105,1.657 -1.117,0.375 -2.248,0.705 -3.898,1.217 2.036,2.051 4.069,1.021 5.716,1.715 0.858,0.361 1.751,0.764 1.58,1.677 -0.168,0.898 -1.188,0.702 -1.842,0.434 -2.289,-0.94 -2.752,-0.117 -1.833,1.896 0.66,1.448 -0.538,4.104 3.162,3.741 1.176,-0.114 2.835,3.731 2.732,6.045 -0.194,4.415 2.057,8.514 1.347,12.938 -0.044,0.275 0.244,0.665 0.474,0.913 1.942,2.102 3.837,4.512 5.931,6.121 9.332,7.173 17.065,13.28 27.101,17.364 48.451,18.021 105.457,9.109 145.63,-25.277 1.48,-1.269 2.902,-2.6 4.331,-3.925 -0.262,-0.137 -0.524,-0.318 -0.788,-0.605 -0.876,-0.952 -2.582,-1.535 -2.163,-3.165 0.522,-2.033 2.584,-1.531 4.005,-1.798 2.089,-0.393 3.83,-1.18 5.35,-2.664 0.692,-0.677 1.59,-1.495 2.59,-0.863 10.577,-11.671 19.305,-24.991 25.639,-39.455 0.648,-1.477 1.22,-2.959 1.802,-4.439 C 2.438,111.049 1.7,110.332 1.212,109.108 2.313,107.952 3.63,107.377 4.955,107.25 6.9,101.699 8.475,96.119 9.68,90.487 9.229,84.855 6.776,77.313 5.97,73.083 5.259,69.349 4.285,65.62 2.962,62.063 2.586,61.05 2.094,59.96 1.383,59.081 c -0.771,2.246 -3.5,3.301 -5.44,2.346 -0.292,-1.387 0.389,-1.802 0.598,-2.686 0.842,-0.055 0.748,1.175 1.194,0 -0.898,0.301 -0.529,-0.665 -0.597,-1.192 0.633,0.04 1.157,-0.019 1.654,-0.086 -0.164,-0.033 -0.318,-0.081 -0.496,-0.095 -3.346,-0.27 -1.968,-3.711 -3.797,-5.038 -3.221,-2.339 -5.867,-5.396 -9.307,-7.517 -0.808,-0.499 -2.518,-1.333 -1.518,-2.83 0.738,-1.105 2.004,-0.383 3.018,-0.033 1.254,0.434 2.492,0.918 4.317,1.596 -0.406,-3.232 -2.93,-3.711 -3.924,-5.464 -0.517,-0.911 -1.037,-1.886 -0.256,-2.583 0.768,-0.686 1.544,0.19 1.942,0.88 1.398,2.414 2.376,1.997 2.942,-0.432 0.187,-0.809 0.905,-1.576 1.273,-2.385 -0.254,-0.463 -0.291,-1.039 -0.009,-1.713 -0.247,-0.445 -0.707,-0.912 -1.513,-1.416 -1.129,-0.706 0.035,-5.28 1.718,-7.275 3.211,-3.806 4.02,-9.012 7.697,-12.473 C 1.107,10.469 1.118,9.923 1.084,9.544 0.796,6.332 0.762,2.877 0,0 m 31.574,38.7 c -1.765,3.182 -0.128,3.218 1.984,5.78 3.128,3.81 6.297,8.346 6.297,13.485 0,3.993 -1.959,7.65 -4.224,10.801 -1.288,1.79 -2.704,3.477 -4.171,5.137 -2.177,2.464 -3.583,2.397 -1.842,5.565 4.415,8.126 8.923,17.401 1.842,25.425 -2.81,3.176 -6.375,5.622 -9.865,7.977 1.301,4.42 2.676,9.028 2.575,13.678 -0.192,9.324 -8.512,13.484 -16.082,16.625 -2.769,1.144 -3.917,0.552 -3.749,3.837 0.116,2.239 0.206,4.483 0.166,6.721 -0.05,3.918 -0.448,8.1 -2.497,11.538 -2.008,3.374 -5.484,5.308 -9.116,6.479 -1.997,0.655 -4.057,1.104 -6.117,1.468 -4.338,0.758 -4.045,0.695 -4.906,5.007 -1.585,7.983 -4.753,15.221 -13.52,16.792 -4.239,0.758 -8.616,0.489 -12.89,0.228 -3.955,-0.228 -5.409,7.562 -7.42,10.923 -4.157,6.968 -10.069,9.606 -18.052,8.166 -2.228,-0.399 -4.418,-1.005 -6.581,-1.65 -3.309,-0.979 -2.95,0.412 -4.842,2.924 -2.754,3.645 -5.988,7.468 -10.365,9.155 -7.882,3.065 -16.432,-2.831 -23,-6.53 -6.129,5.425 -13.868,13.498 -22.907,10.78 -3.891,-1.158 -7.225,-3.748 -10.251,-6.372 -2.383,-2.065 -2.318,-3.505 -5.355,-1.845 -1.984,1.086 -3.992,2.127 -6.092,2.988 -8.358,3.443 -14.939,1.109 -20.631,-5.653 -2.382,-2.818 -4.531,-8.688 -8.254,-7.66 -4.121,1.144 -8.344,2.333 -12.645,2.459 -9.078,0.283 -13.65,-6.376 -16.881,-13.947 -1.109,-2.598 -0.517,-3.783 -3.62,-3.603 -2.086,0.112 -4.183,0.18 -6.284,0.09 -3.836,-0.17 -7.906,-0.879 -10.982,-3.339 -2.796,-2.226 -4.38,-5.577 -5.412,-8.925 -1.09,-3.563 -0.796,-11.663 -4.478,-12.295 -6.904,-1.198 -15.969,-2.495 -19.754,-9.258 -1.918,-3.415 -2.216,-7.506 -2.175,-11.33 0.022,-2.203 0.166,-4.393 0.334,-6.583 -2.448,-0.991 -4.894,-2.019 -7.238,-3.244 -7.521,-3.939 -11.217,-9.723 -9.89,-18.348 0.565,-3.711 4.379,-10.819 1.301,-13.022 -3.722,-2.68 -7.572,-5.435 -10.43,-9.064 -5.769,-7.301 -2.679,-15.504 1.388,-22.818 1.78,-3.182 0.144,-3.218 -1.967,-5.798 -1.47,-1.759 -2.847,-3.603 -3.967,-5.609 -2.394,-4.228 -3.038,-8.826 -1.16,-13.381 1.624,-3.918 4.429,-7.265 7.212,-10.406 2.189,-2.459 3.566,-2.397 1.841,-5.565 -1.158,-2.149 -2.317,-4.311 -3.307,-6.55 -4.211,-9.469 -2.036,-16.716 5.986,-23.016 1.728,-1.351 3.541,-2.611 5.356,-3.837 -0.694,-2.328 -1.351,-4.676 -1.854,-7.059 -0.85,-4.079 -1.312,-8.624 0.567,-12.5 1.558,-3.246 4.482,-5.538 7.535,-7.288 1.723,-0.992 3.527,-1.857 5.356,-2.643 2.959,-1.297 5.833,-1.104 5.651,-4.645 -0.385,-7.601 -1.016,-17.383 6.117,-22.238 3.349,-2.293 7.496,-3.271 11.435,-3.967 2.937,-0.516 3.956,0.359 4.522,-2.849 0.488,-2.791 1.054,-5.587 1.994,-8.275 2.95,-8.463 9.659,-11.155 18.171,-11.155 2.215,0 4.416,0.102 6.63,0.247 3.257,0.192 2.692,-0.97 3.863,-3.711 1.779,-4.098 3.712,-8.355 6.852,-11.613 5.834,-6.054 14.113,-4.25 21.337,-2.101 3.851,1.15 6.195,-4.999 8.964,-7.749 2.535,-2.54 5.665,-4.717 9.333,-5.089 3.994,-0.413 7.934,1.055 11.475,2.742 2.151,1.032 4.238,2.176 6.31,3.347 3.131,1.764 3.272,0.131 5.756,-2.006 5.925,-5.115 12.966,-10.379 21.04,-6.932 3.826,1.638 7.086,4.42 10.135,7.202 2.872,2.616 8.14,-2.14 11.784,-3.361 7.675,-2.563 13.65,0.485 18.647,6.413 2.369,2.803 4.531,8.677 8.252,7.645 4.121,-1.157 8.359,-2.342 12.659,-2.472 9.08,-0.278 13.652,6.363 16.883,13.952 1.094,2.584 0.516,3.796 3.605,3.611 2.098,-0.125 4.197,-0.201 6.298,-0.099 3.836,0.166 7.904,0.876 10.996,3.334 5.95,4.766 6.697,13.893 7.804,20.866 6.979,1.203 16.135,2.069 20.823,8.123 2.355,3.024 3.013,6.991 3.152,10.724 0.078,2.15 -0.011,4.313 -0.153,6.466 -0.204,3.218 0.876,2.589 3.555,3.774 6.887,3.051 13.587,7.31 13.739,15.661 0.09,4.684 -1.301,9.32 -2.613,13.776 -1.006,3.374 0.089,2.935 2.665,4.828 1.635,1.198 3.257,2.432 4.79,3.774 6.477,5.636 8.937,12.299 5.665,20.538 -0.874,2.185 -1.956,4.29 -3.103,6.349"
             style="fill:#f2570a;fill-opacity:1;fill-rule:evenodd;stroke:none"
             id="path180" />
        </g>
        <g
           id="g182"
           transform="translate(203.7204,374.8665)">
          <path
             d="M 0,0 C -0.731,0.538 -1.439,1.112 -2.204,1.599 -3.565,2.464 -4.98,3.416 -6.449,1.821 -7.325,0.87 -9.03,0.287 -8.611,-1.344 c 0.522,-2.032 2.585,-1.53 4.005,-1.798 2.088,-0.392 3.83,-1.179 5.349,-2.664 0.767,-0.749 1.783,-1.69 2.913,-0.623 1.106,1.044 0.335,2.094 -0.404,2.954 C 2.22,-2.272 1.087,-1.156 0,0"
             style="fill:#f2570a;fill-opacity:1;fill-rule:evenodd;stroke:none"
             id="path184" />
        </g>
        <g
           id="g186"
           transform="translate(433.6374,418.4984)">
          <path
             d="M 0,0 C 1.166,-1.122 1.861,-2.718 4.178,-2.688 6.735,-1.03 0.969,2.782 0,0"
             style="fill:#f2570a;fill-opacity:1;fill-rule:evenodd;stroke:none"
             id="path188" />
        </g>
        <g
           id="g190"
           transform="translate(312.8239,491.7601)">
          <path
             d="M 0,0 C 1.166,-1.664 1.86,-4.03 4.178,-3.986 6.735,-1.528 0.969,4.125 0,0"
             style="fill:#f2570a;fill-opacity:1;fill-rule:evenodd;stroke:none"
             id="path192" />
        </g>
        <g
           id="g194"
           transform="translate(409.7741,377.1331)">
          <path
             d="M 0,0 C -0.044,0.247 -0.126,0.44 -0.219,0.592 -0.736,1.447 -2.037,1.781 -3.508,1.554 -4.016,1.457 -4.42,1.091 -4.533,0.625 c -0.143,-0.586 0.2,-1.24 0.832,-1.489 0.606,0.321 1.133,0.528 1.518,0.661 0.651,0.224 0.966,0.26 1.105,0.272 C -0.771,0.098 -0.421,0.085 0,0"
             style="fill:#f2570a;fill-opacity:1;fill-rule:evenodd;stroke:none"
             id="path196" />
        </g>
        <g
           id="g198"
           transform="translate(408.3425,368.5423)">
          <path
             d="M 0,0 C 0.146,-1.455 2.029,-2.604 2.866,-1.907 2.8,-0.381 1.785,0.188 0,0"
             style="fill:#f2570a;fill-opacity:1;fill-rule:evenodd;stroke:none"
             id="path200" />
        </g>
        <g
           id="g202"
           transform="translate(420.6052,358.6019)">
          <path
             d="M 0,0 C -2.656,0.976 -4.946,0.123 -5.487,-0.096 -6.056,-0.5 -6.195,-0.857 -6.211,-1.117 -6.31,-2.759 -1.727,-5.292 1.986,-4.216 2.895,-3.953 3.559,-3.53 3.924,-3.268 3.6,-2.724 2.418,-0.888 0,0"
             style="fill:#f2570a;fill-opacity:1;fill-rule:evenodd;stroke:none"
             id="path204" />
        </g>
        <g
           id="g206"
           transform="translate(181.7331,361.9827)">
          <path
             d="M 0,0 C -2.265,-1.03 -4.124,-3.449 -2.126,-5.434 0.806,-6.369 4.229,-0.758 0,0"
             style="fill:#f2570a;fill-opacity:1;fill-rule:evenodd;stroke:none"
             id="path208" />
        </g>
        <g
           id="g210"
           transform="translate(191.6638,399.5745)">
          <path
             d="m 0,0 c 0.056,1.009 -0.203,1.604 -0.546,1.968 -2.284,2.426 -12.514,-0.84 -15.011,-7.381 -0.44,-1.153 -0.548,-2.17 -0.582,-2.741 0.147,-0.591 0.441,-1.33 1.097,-1.783 2.259,-1.557 6.819,1.671 8.429,2.81 C -4.894,-5.909 -2.299,-3.717 0,0"
             style="fill:#f2570a;fill-opacity:1;fill-rule:evenodd;stroke:none"
             id="path212" />
        </g>
        <g
           id="g214"
           transform="translate(361.2927,318.3821)">
          <path
             d="m 0,0 c -2.33,-0.109 -5.008,-1.841 -4.799,-3.48 0.036,-0.277 0.189,-0.829 1.033,-1.433 0.375,-0.2 1.624,-0.812 2.938,-0.371 2.14,0.718 3.175,3.799 2.333,4.83 C 1.304,-0.208 0.896,0.041 0,0"
             style="fill:#f2570a;fill-opacity:1;fill-rule:evenodd;stroke:none"
             id="path216" />
        </g>
        <g
           id="g218"
           transform="translate(189.0183,340.4515)">
          <path
             d="m 0,0 c -1.955,-1.812 -4.266,-4.902 -3.507,-5.864 0.222,-0.282 1.034,-0.795 4.964,0.943 0.59,0.262 1.678,0.919 2.799,2.059 1.491,1.516 2.218,3.13 2.57,4.112 C 6.709,1.799 6.464,2.462 5.9,2.792 4.091,3.853 0.595,0.55 0,0"
             style="fill:#f2570a;fill-opacity:1;fill-rule:evenodd;stroke:none"
             id="path220" />
        </g>
        <g
           id="g222"
           transform="translate(417.7595,484.0843)">
          <path
             d="M 0,0 C -3.46,-1.574 -6.3,-5.269 -3.247,-8.301 1.23,-9.73 6.459,-1.157 0,0"
             style="fill:#f2570a;fill-opacity:1;fill-rule:evenodd;stroke:none"
             id="path224" />
        </g>
        <g
           id="g226"
           transform="translate(408.2478,457.14)">
          <path
             d="m 0,0 c -4.147,-2.097 -6.071,-5.145 -5.366,-6.843 0.565,-1.36 2.919,-2.096 4.656,-1.565 1.755,0.536 2.418,2.223 3.53,5.05 0.593,1.505 0.986,2.546 0.454,3.201 C 2.733,0.509 1.415,0.552 0,0"
             style="fill:#f2570a;fill-opacity:1;fill-rule:evenodd;stroke:none"
             id="path228" />
        </g>
        <g
           id="g230"
           transform="translate(430.948,437.1068)">
          <path
             d="M 0,0 C 2.701,0.877 4.166,3.515 4.906,5.471 5.345,6.631 4.383,7.851 3.15,7.718 2.115,7.605 0.912,7.287 -0.231,6.528 -2.782,4.836 -4.409,1.373 -3.456,0.168 -2.66,-0.838 -0.224,-0.072 0,0"
             style="fill:#f2570a;fill-opacity:1;fill-rule:evenodd;stroke:none"
             id="path232" />
        </g>
        <g
           id="g234"
           transform="translate(329.0359,476.1556)">
          <path
             d="M 0,0 C -4.673,-0.512 -5.971,-10.47 0.403,-8.905 2.925,-6.062 4.021,-1.532 0,0"
             style="fill:#f2570a;fill-opacity:1;fill-rule:evenodd;stroke:none"
             id="path236" />
        </g>
        <g
           id="g238"
           transform="translate(293.0652,488.8011)">
          <path
             d="m 0,0 c -3.494,0.437 -6.456,-2.367 -6.862,-5.432 -0.122,-0.921 0.537,-1.802 1.453,-1.952 1.027,-0.167 4.273,1.799 6.797,5.106 C 1.695,-1.261 1.055,-0.132 0,0"
             style="fill:#f2570a;fill-opacity:1;fill-rule:evenodd;stroke:none"
             id="path240" />
        </g>
        <g
           id="g242"
           transform="translate(257.5954,308.6634)">
          <path
             d="m 0,0 c -0.692,-0.127 -1.243,-0.604 -1.396,-1.211 -0.195,-0.765 0.272,-1.617 1.132,-1.942 0.826,0.419 1.543,0.689 2.069,0.862 0.885,0.293 1.316,0.338 1.505,0.355 0.419,0.038 0.894,0.02 1.468,-0.09 C 4.719,-1.704 4.605,-1.451 4.48,-1.254 3.774,-0.14 2.003,0.296 0,0"
             style="fill:#f2570a;fill-opacity:1;fill-rule:evenodd;stroke:none"
             id="path244" />
        </g>
        <g
           id="g246"
           transform="translate(343.2116,302.5677)">
          <path
             d="m 0,0 c -0.869,-0.159 -1.562,-0.759 -1.755,-1.521 -0.244,-0.961 0.342,-2.032 1.424,-2.441 1.037,0.526 1.938,0.866 2.599,1.083 1.112,0.368 1.653,0.426 1.89,0.446 0.527,0.047 1.124,0.026 1.845,-0.113 C 5.929,-2.142 5.787,-1.824 5.63,-1.576 4.743,-0.176 2.517,0.372 0,0"
             style="fill:#f2570a;fill-opacity:1;fill-rule:evenodd;stroke:none"
             id="path248" />
        </g>
        <g
           id="g250"
           transform="translate(289.9538,309.2288)">
          <path
             d="m 0,0 c -1.411,-0.521 -1.997,-2.118 -2.086,-2.372 -0.064,-1.717 0.336,-2.564 0.726,-3.02 0.657,-0.769 1.48,-0.621 1.873,-1.448 0.223,-0.471 0.268,-1.159 -0.025,-2.255 0.954,0.057 1.572,0.456 1.899,0.725 1.46,1.194 2.067,3.785 1.527,6.517 C 2.984,-0.222 1.381,0.51 0,0"
             style="fill:#f2570a;fill-opacity:1;fill-rule:evenodd;stroke:none"
             id="path252" />
        </g>
        <g
           id="g254"
           transform="translate(205.7683,467.223)">
          <path
             d="m 0,0 c -1.228,-0.474 -1.737,-1.926 -1.815,-2.156 -0.056,-1.562 0.292,-2.331 0.631,-2.747 0.572,-0.7 1.288,-0.564 1.63,-1.316 0.195,-0.428 0.234,-1.054 -0.021,-2.052 0.831,0.052 1.368,0.417 1.652,0.66 1.271,1.087 1.8,3.442 1.329,5.926 C 2.597,-0.201 1.202,0.464 0,0"
             style="fill:#f2570a;fill-opacity:1;fill-rule:evenodd;stroke:none"
             id="path256" />
        </g>
        <g
           id="g258"
           transform="translate(236.2693,468.1585)">
          <path
             d="M 0,0 C -0.822,-1.969 -2.451,-3.585 -1.308,-6.417 1.95,-8.768 3.881,0.139 0,0"
             style="fill:#f2570a;fill-opacity:1;fill-rule:evenodd;stroke:none"
             id="path260" />
        </g>
        <g
           id="g262"
           transform="translate(334.3396,454.7103)">
          <path
             d="m 0,0 c 13.456,7.808 28.815,10.869 45.637,-0.607 2.393,-1.499 5.4,-2.079 8.498,-1.227 4.085,1.123 7.171,4.719 7.641,8.928 0.485,4.337 -1.586,8.112 -4.812,10.185 l -0.733,0.433 C 52.845,19.624 48.056,20.674 41.747,20.864 25.323,21.359 10.007,14.661 -1.589,1.991 -2.589,0.898 -1.281,-0.743 0,0"
             style="fill:#11153f;fill-opacity:1;fill-rule:nonzero;stroke:none"
             id="path264" />
        </g>
        <g
           id="g266"
           transform="translate(232.1062,399.2552)">
          <path
             d="m 0,0 c -2.136,-0.9 -4.232,-1.204 -6.243,3.561 l -14.828,35.158 c -2.01,4.764 -0.329,6.054 1.807,6.955 l 1.971,0.831 C -8.585,50.179 -0.063,39.839 4.579,28.831 9.221,17.823 10.679,4.505 1.972,0.832 Z M 19.036,34.929 C 11.554,52.673 -2.208,59.835 -19.787,52.421 L -39.585,44.07 C -50.1,39.636 -57.596,28.732 -54.478,21.339 c 1.872,-4.436 6.305,-6.919 10.249,-5.256 8.79,3.707 -0.994,18.643 4.182,20.826 2.382,1.004 5.174,-4.011 6.942,-8.2 l 9.112,-21.605 c 4.573,-10.843 1.073,-14.932 2.632,-18.628 0.624,-1.479 2.497,-3.398 6.03,-1.909 l 19.798,8.351 c 17.578,7.414 22.054,22.268 14.569,40.011"
             style="fill:#11153f;fill-opacity:1;fill-rule:nonzero;stroke:none"
             id="path268" />
        </g>
        <g
           id="g270"
           transform="translate(273.3464,431.5101)">
          <path
             d="M 0,0 C -0.979,8.413 1.034,13.493 5.551,14.018 14.406,15.047 18.288,-1.376 18.997,-7.486 19.913,-15.367 17.812,-20.457 13.384,-20.972 4.617,-21.99 0.637,-5.49 0,0 m 12.204,-27.032 c 14.258,1.656 22.141,11.816 20.465,26.25 C 30.992,13.652 20.988,21.734 6.731,20.079 -7.525,18.423 -15.411,8.263 -13.732,-6.172 c 1.675,-14.434 11.677,-22.516 25.936,-20.86"
             style="fill:#11153f;fill-opacity:1;fill-rule:nonzero;stroke:none"
             id="path272" />
        </g>
        <g
           id="g274"
           transform="translate(357.3698,444.6663)">
          <path
             d="m 0,0 c 8.183,-1.324 4.317,-14.606 12.678,-15.959 3.697,-0.599 6.219,2.154 6.93,6.556 C 20.55,-3.596 17.132,3.188 2.786,5.51 -11.381,7.803 -21.736,0.176 -24.058,-14.168 c -2.321,-14.345 5.101,-24.848 19.269,-27.141 11.088,-1.794 20.689,3.968 21.417,8.456 0.084,0.528 -0.139,1.376 -1.107,1.534 -1.936,0.313 -5.994,-3.003 -13.475,-1.793 C -6.49,-31.731 -11,-23.325 -9.163,-11.974 -7.81,-3.612 -4.488,0.727 0,0"
             style="fill:#11153f;fill-opacity:1;fill-rule:nonzero;stroke:none"
             id="path276" />
        </g>
        <g
           id="g278"
           transform="translate(326.5329,389.9212)">
          <path
             d="m 0,0 c -4.499,-0.147 -8.011,-1.341 -6.675,-7.05 l 8.061,-32.684 c 0.124,-0.492 0.542,-0.842 1.048,-0.884 1.69,-0.141 3.583,-0.398 5.625,-0.84 1.707,-0.369 3.261,-0.813 4.651,-1.28 0.514,-0.173 1.07,0.019 1.365,0.475 l 16.986,26.284 c 5.493,8.451 12.4,8.463 13.502,13.655 0.7,3.303 -2.533,5.88 -6.465,6.715 C 32.355,5.609 28.261,3.355 25.287,-1.356 L 6.126,-31.424 3.249,-18.054 C 1.602,-10.717 5.9,-8.032 7.135,-4.376 8.688,0.22 4.277,0.14 0,0"
             style="fill:#11153f;fill-opacity:1;fill-rule:nonzero;stroke:none"
             id="path280" />
        </g>
        <g
           id="g282"
           transform="translate(412.8923,421.2689)">
          <path
             d="m 0,0 c -3.906,-6.906 -11.403,-4.406 -18.329,-8.684 0.431,2.933 1.511,6.111 3.353,9.371 4.17,7.372 8.791,10.289 13.136,7.831 C 1.807,6.455 1.404,2.483 0,0 m 2.3,12.937 c -12.495,7.067 -24.853,3.506 -32.007,-9.142 -7.154,-12.649 -3.838,-25.073 8.656,-32.141 6.616,-3.742 13.375,-4.097 17.753,-2.714 l -0.012,-0.011 c 0,0 6.608,1.673 7.171,7.114 l -0.006,-0.006 c 0.215,1.557 -0.522,3.203 -2.166,4 -1.212,0.588 -2.719,0.453 -3.812,-0.336 -0.85,-0.613 -1.357,-1.453 -1.541,-2.34 -0.365,-1.752 -1.928,-2.692 -3.705,-2.485 -1.556,0.181 -3.22,0.74 -4.924,1.985 -4.39,3.208 -4.485,6.511 -3.389,8.451 4.126,7.294 22.088,-3.684 28.584,7.8 C 16.501,-0.524 11.688,7.626 2.3,12.937"
             style="fill:#11153f;fill-opacity:1;fill-rule:nonzero;stroke:none"
             id="path284" />
        </g>
        <g
           id="g286"
           transform="translate(290.5593,359.4446)">
          <path
             d="m 0,0 c -1.624,2.22 -2.978,5.026 -3.88,8.382 -2.038,7.59 -0.88,12.526 3.594,13.728 3.755,1.009 6.073,-1.881 6.761,-4.437 C 8.385,10.563 1.798,7.337 0,0 M 24.619,4.337 V 4.329 c -0.871,1.17 -2.43,1.779 -4.036,1.236 -1.185,-0.4 -2.094,-1.469 -2.304,-2.703 -0.163,-0.958 0.048,-1.843 0.503,-2.55 0.9,-1.397 0.478,-3.036 -0.833,-4.055 -1.146,-0.893 -2.612,-1.607 -4.55,-1.891 -4.992,-0.735 -7.204,1.388 -7.74,3.385 -2.017,7.511 17.009,11.937 13.833,23.762 -1.76,6.551 -10.248,8.812 -19.916,6.215 -12.864,-3.456 -18.722,-13.853 -15.224,-26.876 3.499,-13.024 13.778,-19.086 26.642,-15.63 6.813,1.83 11.516,5.993 13.511,9.757 v -0.015 c 0,0 3.282,5.406 0.114,9.373"
             style="fill:#11153f;fill-opacity:1;fill-rule:nonzero;stroke:none"
             id="path288" />
        </g>
        <g
           id="g290"
           transform="translate(386.2038,360.8997)">
          <path
             d="m 0,0 c -2.743,-6.739 -9.856,-5.344 -15.653,-10.046 0.047,2.718 0.657,5.735 1.952,8.916 2.929,7.193 6.79,10.389 11.03,8.662 C 0.889,6.083 0.987,2.423 0,0 m 0.577,12.037 c -12.193,4.965 -23.016,0.278 -28.043,-12.065 -5.025,-12.344 -0.554,-23.257 11.64,-28.221 6.456,-2.629 12.645,-2.161 16.466,-0.39 L 0.631,-28.65 c 0,0 5.813,2.296 5.688,7.311 l -0.005,-0.006 c 0.014,1.442 -0.849,2.853 -2.438,3.384 -1.172,0.393 -2.526,0.095 -3.429,-0.752 -0.701,-0.657 -1.064,-1.479 -1.128,-2.308 -0.126,-1.636 -1.437,-2.675 -3.078,-2.695 -1.436,-0.018 -3.015,0.296 -4.712,1.229 -4.369,2.404 -4.842,5.396 -4.072,7.29 2.898,7.118 20.523,-0.764 25.086,10.443 2.528,6.21 -2.804,13.061 -11.966,16.791"
             style="fill:#11153f;fill-opacity:1;fill-rule:nonzero;stroke:none"
             id="path292" />
        </g>
        <g
           id="g294"
           transform="translate(333.654,341.39)">
          <path
             d="m 0,0 c -5.774,1.479 -12.275,-0.321 -12.275,-0.321 -11.746,-3.625 -22.08,-5.653 -29.352,-5.415 -22.494,1.17 -25.709,26.264 -28.728,32.153 -3.846,10.812 -9.35,13.112 -16.835,10.45 -5.973,-2.124 -9.897,-6.417 -11.749,-11.505 -2.544,4.035 -5.868,5.239 -10.707,3.518 -3.78,-1.345 -7.703,-4.443 -6.573,-7.619 1.345,-3.781 7.115,-4.199 10.477,-13.65 3.55,-9.979 0.192,-13.472 1.403,-16.876 0.485,-1.361 2.068,-3.182 5.32,-2.025 l 12.097,4.303 c 3.251,1.156 3.33,3.568 2.846,4.929 -1.211,3.404 -6.02,3.993 -9.57,13.972 -2.528,7.107 -0.936,15.084 4.508,17.021 3.704,1.317 6.279,-3.167 8.699,-9.972 4.25,-11.946 12.335,-33.585 33.86,-35.475 9.514,-0.836 27.325,2.83 39.818,6.057 0.715,0.184 1.464,0.344 2.221,0.464 3.475,0.268 6.517,-2.337 6.786,-5.813 0.232,-2.998 -1.671,-5.668 -4.428,-6.518 l -0.003,-0.006 c -3.771,-1.212 -7.679,-0.467 -11.147,-0.885 -0.026,-0.002 -0.051,0.004 -0.077,0.002 -0.058,-0.005 -0.11,-0.024 -0.166,-0.03 -0.114,-0.016 -0.235,-0.022 -0.348,-0.04 l 0.002,-0.022 c -3.226,-0.518 -5.58,-3.406 -5.323,-6.722 0.27,-3.494 3.321,-6.106 6.814,-5.836 0.042,0.004 0.079,0.017 0.12,0.022 l 0.001,-0.013 1.437,0.213 c 15,3.174 26.369,13.123 22.223,24.935 C 9.06,-4.181 4.292,-1.101 0,0"
             style="fill:#11153f;fill-opacity:1;fill-rule:nonzero;stroke:none"
             id="path296" />
        </g>
        <g
           id="g298"
           transform="translate(254.4333,465.1771)">
          <path
             d="m 0,0 c 0,0 5.385,-6.771 23.658,-5.472 7.446,0.529 13.309,-0.543 17.364,-1.773 2.122,-0.704 17.725,-6.53 18.874,-25.442 0.012,-0.555 0.066,-1.085 0.053,-1.656 -0.008,-1.803 -0.094,-3.463 -0.238,-4.996 -0.007,-0.06 -0.012,-0.12 -0.019,-0.181 -0.046,-0.473 -0.106,-0.918 -0.163,-1.367 -0.229,-1.629 -0.549,-3.327 -0.978,-5.106 -1.644,-6.202 -4.298,-9.289 -5.49,-11.338 -0.315,-0.537 -0.274,-1.144 0,-1.617 0.357,-0.617 1.128,-0.777 1.404,-0.82 3.16,0.31 6.671,0.501 10.481,0.47 3.988,-0.033 7.647,-0.305 10.919,-0.695 1.287,-0.014 2.076,1.376 1.434,2.491 -1.782,3.095 -6.291,7.179 -6.225,21.628 C 70.97,-19.307 63.219,-9.74 57.381,-5.211 45.437,3.711 32.345,4.111 21.573,3.949 13.133,3.822 8.828,9.092 8.828,9.092 L 8.813,9.076 C 6.398,11.278 2.673,11.321 0.238,9.055 -2.326,6.667 -2.471,2.653 -0.083,0.089 Z"
             style="fill:#11153f;fill-opacity:1;fill-rule:nonzero;stroke:none"
             id="path300" />
        </g>
        <g
           id="g302"
           transform="translate(258.0212,497.8655)">
          <path
             d="m 0,0 -0.666,1.346 c -0.665,-1.782 -1.651,-2.942 -3.359,-3.751 -0.931,-0.442 -3.113,-1.314 -5.842,-0.31 -1.325,0.507 -3.652,1.838 -5.218,5.136 -0.966,2.031 -1.387,4.432 -0.939,6.61 0.265,1.234 1.19,3.969 4.284,5.436 0.43,0.206 1.426,0.624 2.732,0.715 1.187,0.068 3.616,-0.082 5.919,-2.368 l -2.188,-2.419 c -0.624,0.644 -2.55,2.637 -5.211,1.375 -0.519,-0.249 -1.685,-0.911 -2.2,-2.457 -0.359,-1.139 -0.495,-2.865 0.674,-5.326 0.313,-0.654 1.449,-3.05 3.928,-3.754 1.069,-0.297 2.028,-0.144 3.003,0.318 1.514,0.719 2.488,2.123 2.365,3.889 -0.021,0.377 -0.095,0.813 -0.35,1.579 L -6.876,4.211 -8.118,6.831 -1.696,9.879 2.44,1.16 Z"
             style="fill:#97b6b7;fill-opacity:1;fill-rule:nonzero;stroke:none"
             id="path304" />
        </g>
        <g
           id="g306"
           transform="translate(264.2605,500.3802)">
          <path
             d="M 0,0 -5.295,16.825 6.162,20.429 7.046,17.617 -1.443,14.946 -0.198,10.992 7.584,13.438 8.438,10.721 0.659,8.274 2.075,3.77 11.136,6.619 12.027,3.784 Z"
             style="fill:#97b6b7;fill-opacity:1;fill-rule:nonzero;stroke:none"
             id="path308" />
        </g>
        <g
           id="g310"
           transform="translate(279.3884,504.7737)">
          <path
             d="M 0,0 -3.28,17.346 -0.156,17.94 2.567,3.542 9.151,4.79 9.708,1.843 Z"
             style="fill:#97b6b7;fill-opacity:1;fill-rule:nonzero;stroke:none"
             id="path312" />
        </g>
        <g
           id="g314"
           transform="translate(297.0818,521.8831)">
          <path
             d="m 0,0 -1.767,-8.268 4.646,0.325 z m 5.135,-14.153 -1.216,3.374 -6.316,-0.439 -0.736,-3.51 -3.384,-0.235 4.461,18.002 3.575,0.247 6.978,-17.204 z"
             style="fill:#97b6b7;fill-opacity:1;fill-rule:nonzero;stroke:none"
             id="path316" />
        </g>
        <g
           id="g318"
           transform="translate(313.8972,522.2659)">
          <path
             d="M 0,0 -0.565,-14.663 -3.719,-14.542 -3.15,0.121 -7.735,0.298 -7.62,3.271 4.772,2.795 4.658,-0.179 Z"
             style="fill:#97b6b7;fill-opacity:1;fill-rule:nonzero;stroke:none"
             id="path320" />
        </g>
        <g
           id="g322"
           transform="translate(321.0163,507.0882)">
          <path
             d="M 0,0 2.763,17.442 14.61,15.549 14.148,12.634 5.368,14.036 4.721,9.935 12.768,8.647 12.323,5.833 4.272,7.119 3.533,2.449 12.902,0.951 12.438,-1.988 Z"
             style="fill:#97b6b7;fill-opacity:1;fill-rule:nonzero;stroke:none"
             id="path324" />
        </g>
        <g
           id="g326"
           transform="translate(348.4323,515.6976)">
          <path
             d="m 0,0 c -0.421,0.515 -0.998,0.842 -2.279,1.222 l -2.452,0.721 -1.558,-5.273 1.074,-0.318 c 1.767,-0.519 2.865,-0.845 3.719,-0.654 0.536,0.129 1.475,0.53 1.882,1.896 C 0.512,-1.976 0.763,-0.954 0,0 m -3.016,-13.992 -1.327,7.222 -2.726,0.804 -1.856,-6.28 -3.003,0.887 5.002,16.921 6.622,-1.956 C 0.43,3.392 2.585,2.677 3.438,0.262 3.995,-1.311 3.609,-2.785 3.448,-3.336 3.368,-3.602 3.098,-4.432 2.591,-5.142 2.132,-5.763 0.922,-6.996 -1.11,-7.046 l 1.554,-7.965 z"
             style="fill:#97b6b7;fill-opacity:1;fill-rule:nonzero;stroke:none"
             id="path328" />
        </g>
        <g
           id="g330"
           transform="translate(351.8982,499.3499)">
          <path
             d="M 0,0 6.628,16.371 9.51,15.205 2.885,-1.166 Z"
             style="fill:#97b6b7;fill-opacity:1;fill-rule:nonzero;stroke:none"
             id="path332" />
        </g>
        <g
           id="g334"
           transform="translate(370.8923,506.6019)">
          <path
             d="m 0,0 -5.83,-6.124 4.134,-2.152 z m -3.015,-14.748 0.721,3.513 -5.618,2.926 -2.464,-2.609 -3.013,1.569 13.224,13.015 3.18,-1.655 -3.041,-18.317 z"
             style="fill:#97b6b7;fill-opacity:1;fill-rule:nonzero;stroke:none"
             id="path336" />
        </g>
        <g
           id="g338"
           transform="translate(209.4675,325.3909)">
          <path
             d="M 0,0 C 0.609,1.251 -0.156,2.331 -0.812,3.265 L -2.12,5.114 -6.808,1.802 -5.58,0.062 c 0.115,-0.166 0.265,-0.336 0.38,-0.501 0.936,-1.205 1.725,-1.469 2.482,-1.402 0.321,0.035 0.972,0.168 1.66,0.654 C -0.637,-0.89 -0.239,-0.475 0,0 m -4.246,-4.594 c -1.534,0.589 -2.405,1.784 -3.298,3.048 l -1.331,1.887 -4.593,-3.247 -1.708,2.417 L -1.664,9.06 1.413,4.702 C 1.634,4.39 1.872,4.093 2.072,3.769 2.435,3.174 3.471,1.463 2.867,-0.692 2.399,-2.424 1.163,-3.354 0.627,-3.731 -1.479,-5.218 -3.307,-4.947 -4.246,-4.594"
             style="fill:#97b6b7;fill-opacity:1;fill-rule:nonzero;stroke:none"
             id="path340" />
        </g>
        <g
           id="g342"
           transform="translate(217.7468,316.8489)">
          <path
             d="m 0,0 -7.104,-3.524 2.95,-3.222 z m -7.396,-12.022 1.766,2.862 -4.013,4.378 -3.006,-1.507 -2.15,2.344 L 1.03,3.28 3.301,0.804 -5.265,-14.352 Z"
             style="fill:#97b6b7;fill-opacity:1;fill-rule:nonzero;stroke:none"
             id="path344" />
        </g>
        <g
           id="g346"
           transform="translate(225.0163,293.4319)">
          <path
             d="m 0,0 c -2.541,-0.074 -4.52,1.546 -5.07,2.005 -0.721,0.6 -3.015,2.576 -3.157,5.836 -0.011,0.406 0.021,0.898 0.107,1.313 L -5.056,8.948 C -5.211,7.676 -5.114,5.762 -2.876,3.896 -2.773,3.81 -2.344,3.45 -1.907,3.241 -1.604,3.08 -0.132,2.429 0.857,3.618 0.963,3.742 1.231,4.099 1.264,4.561 1.331,5.479 0.365,6.56 -0.117,7.208 l -1.16,1.546 c -0.501,0.662 -1.052,1.366 -1.346,2.129 -0.315,0.78 -0.81,2.567 0.722,4.401 0.238,0.289 0.963,1.087 2.022,1.485 1.36,0.508 3.616,0.52 6.077,-1.532 1.084,-0.904 3.069,-2.865 2.759,-6.663 L 5.865,8.68 C 6.013,9.625 6.201,11.604 4.293,13.196 4.173,13.297 2.656,14.593 1.331,14.019 1.063,13.906 0.878,13.756 0.713,13.559 0.533,13.341 0.437,13.12 0.389,12.853 0.248,12.087 0.783,11.365 1.69,10.182 L 2.706,8.845 C 3.634,7.614 4.608,6.191 4.594,4.528 4.605,3.845 4.487,2.968 3.513,1.799 2.553,0.647 1.473,0.053 0,0"
             style="fill:#97b6b7;fill-opacity:1;fill-rule:nonzero;stroke:none"
             id="path348" />
        </g>
        <g
           id="g350"
           transform="translate(242.0154,296.9066)">
          <path
             d="M 0,0 -7.453,-11.558 -9.943,-9.955 -2.491,1.604 -6.113,3.937 -4.6,6.28 5.187,-0.024 3.677,-2.368 Z"
             style="fill:#97b6b7;fill-opacity:1;fill-rule:nonzero;stroke:none"
             id="path352" />
        </g>
        <g
           id="g354"
           transform="translate(241.8855,281.0794)">
          <path
             d="M 0,0 7.956,14.487 10.512,13.082 2.553,-1.404 Z"
             style="fill:#97b6b7;fill-opacity:1;fill-rule:nonzero;stroke:none"
             id="path356" />
        </g>
        <g
           id="g358"
           transform="translate(261.7126,274.6048)">
          <path
             d="m 0,0 c -1.06,-0.627 -3.351,-1.66 -6.289,-0.444 -0.497,0.206 -1.66,0.736 -2.673,1.864 -1.316,1.51 -2.694,4.514 -0.831,9.042 0.339,0.824 1.243,3.012 3.419,4.473 1.14,0.768 3.601,1.984 6.811,0.656 C 3.23,14.437 4.104,12.376 4.364,11.127 4.538,10.194 4.515,9.316 4.432,8.412 L 1.417,8.795 c 0.059,0.203 0.183,0.736 0.126,1.369 -0.111,1.314 -0.978,2.329 -2.144,2.789 -0.83,0.341 -1.515,0.32 -1.869,0.288 C -3.777,13.124 -5.626,12.164 -6.804,9.305 -6.983,8.869 -7.711,7.04 -7.426,5.324 c 0.104,-0.574 0.295,-1.11 0.592,-1.56 0.61,-0.991 1.455,-1.414 1.847,-1.576 1.139,-0.471 2.184,-0.344 3.262,0.274 0.442,0.247 0.857,0.609 0.963,0.691 0.164,0.162 0.297,0.31 0.583,0.649 L 1.943,1.604 C 1.313,0.951 0.771,0.466 0,0"
             style="fill:#97b6b7;fill-opacity:1;fill-rule:nonzero;stroke:none"
             id="path360" />
        </g>
        <g
           id="g362"
           transform="translate(278.7409,269.764)">
          <path
             d="m 0,0 c -0.969,-0.762 -3.104,-2.093 -6.181,-1.283 -0.518,0.138 -1.743,0.509 -2.897,1.493 -1.505,1.315 -3.272,4.11 -2.023,8.851 0.23,0.862 0.833,3.153 2.797,4.89 1.031,0.919 3.313,2.453 6.669,1.567 C 1.292,14.749 2.429,12.823 2.853,11.619 3.15,10.718 3.241,9.844 3.283,8.937 L 0.241,8.913 c 0.03,0.209 0.082,0.754 -0.055,1.372 -0.287,1.29 -1.282,2.182 -2.5,2.477 -0.867,0.229 -1.546,0.117 -1.891,0.038 -1.28,-0.294 -2.988,-1.493 -3.777,-4.487 -0.122,-0.454 -0.601,-2.365 -0.089,-4.029 0.176,-0.555 0.439,-1.059 0.792,-1.469 0.739,-0.898 1.632,-1.204 2.041,-1.313 1.192,-0.315 2.214,-0.05 3.2,0.71 0.406,0.306 0.768,0.718 0.866,0.815 0.138,0.18 0.253,0.345 0.488,0.719 L 1.717,1.855 C 1.175,1.122 0.703,0.568 0,0"
             style="fill:#97b6b7;fill-opacity:1;fill-rule:nonzero;stroke:none"
             id="path364" />
        </g>
        <g
           id="g366"
           transform="translate(283.7575,266.4017)">
          <path
             d="M 0,0 2.177,16.403 13.33,14.926 12.968,12.185 4.7,13.279 4.19,9.423 11.767,8.418 11.416,5.769 3.837,6.772 3.254,2.382 12.075,1.213 11.71,-1.552 Z"
             style="fill:#97b6b7;fill-opacity:1;fill-rule:nonzero;stroke:none"
             id="path368" />
        </g>
        <g
           id="g370"
           transform="translate(308.032,277.8792)">
          <path
             d="m 0,0 c -0.513,0.356 -1.116,0.504 -2.37,0.516 l -2.401,0.026 -0.049,-5.153 1.054,-0.012 c 1.725,-0.018 2.8,-0.026 3.522,0.362 0.45,0.254 1.195,0.855 1.21,2.191 C 0.969,-1.648 0.934,-0.665 0,0 m 0.874,-13.383 -3.053,6.169 -2.665,0.027 -0.061,-6.136 -2.936,0.032 0.164,16.533 6.476,-0.068 C -0.486,3.165 1.643,3.074 3.035,1.116 3.939,-0.156 3.972,-1.587 3.966,-2.126 3.963,-2.382 3.934,-3.2 3.657,-3.972 3.403,-4.649 2.629,-6.068 0.807,-6.637 l 3.451,-6.781 z"
             style="fill:#97b6b7;fill-opacity:1;fill-rule:nonzero;stroke:none"
             id="path372" />
        </g>
        <g
           id="g374"
           transform="translate(316.7351,264.8792)">
          <path
             d="m 0,0 -1.363,16.501 2.9,0.238 1.363,-16.5 z"
             style="fill:#97b6b7;fill-opacity:1;fill-rule:nonzero;stroke:none"
             id="path376" />
        </g>
        <g
           id="g378"
           transform="translate(328.3484,279.9993)">
          <path
             d="m 0,0 -0.833,-7.889 4.305,0.763 z m 6.189,-12.696 -1.469,3.026 -5.851,-1.036 -0.342,-3.345 -3.135,-0.556 2.388,17.239 3.313,0.586 8.212,-15.361 z"
             style="fill:#97b6b7;fill-opacity:1;fill-rule:nonzero;stroke:none"
             id="path380" />
        </g>
        <g
           id="g382"
           transform="translate(349.5398,271.3694)">
          <path
             d="m 0,0 -5.359,15.655 2.758,0.946 5.36,-15.659 z"
             style="fill:#97b6b7;fill-opacity:1;fill-rule:nonzero;stroke:none"
             id="path384" />
        </g>
        <g
           id="g386"
           transform="translate(357.5329,289.2503)">
          <path
             d="m 0,0 5.562,-12.584 -2.708,-1.195 -5.562,12.584 -3.94,-1.741 -1.127,2.55 10.649,4.705 1.128,-2.552 z"
             style="fill:#97b6b7;fill-opacity:1;fill-rule:nonzero;stroke:none"
             id="path388" />
        </g>
        <g
           id="g390"
           transform="translate(367.7712,294.3353)">
          <path
             d="m 0,0 1.896,-7.702 3.787,2.179 z m 10.126,-9.84 -2.408,2.35 -5.145,-2.962 0.816,-3.266 -2.756,-1.587 -3.61,17.028 2.913,1.678 12.928,-11.663 z"
             style="fill:#97b6b7;fill-opacity:1;fill-rule:nonzero;stroke:none"
             id="path392" />
        </g>
        <g
           id="g394"
           transform="translate(384.2927,288.6351)">
          <path
             d="m 0,0 -9.841,13.317 2.397,1.77 L 0.727,4.034 5.776,7.756 7.449,5.491 Z"
             style="fill:#97b6b7;fill-opacity:1;fill-rule:nonzero;stroke:none"
             id="path396" />
        </g>
        <g
           id="g398"
           transform="translate(395.0163,296.9857)">
          <path
             d="M 0,0 -10.915,12.408 -8.728,14.333 2.188,1.929 Z"
             style="fill:#97b6b7;fill-opacity:1;fill-rule:nonzero;stroke:none"
             id="path400" />
        </g>
        <g
           id="g402"
           transform="translate(395.3132,316.0687)">
          <path
             d="m 0,0 4.081,-6.793 2.977,3.194 z m 12.579,-6.41 -2.995,1.534 -4.049,-4.34 1.743,-2.877 -2.17,-2.326 -8.464,15.188 2.291,2.455 15.796,-7.323 z"
             style="fill:#97b6b7;fill-opacity:1;fill-rule:nonzero;stroke:none"
             id="path404" />
        </g>
        <g
           id="g406"
           transform="translate(418.489,323.4974)">
          <path
             d="m 0,0 -13.468,1.036 9.575,-6.548 -1.667,-2.362 -13.511,9.549 1.54,2.179 13.577,-1.004 -9.737,6.442 1.677,2.383 13.513,-9.552 z"
             style="fill:#97b6b7;fill-opacity:1;fill-rule:nonzero;stroke:none"
             id="path408" />
        </g>
        <g
           id="g410"
           transform="translate(413.6745,341.97)">
          <path
             d="m 0,0 5.7,-5.503 2.047,3.866 z m 13.801,-2.908 -3.286,0.697 -2.78,-5.256 2.426,-2.323 -1.489,-2.817 -12.108,12.469 1.573,2.977 17.145,-2.953 z"
             style="fill:#97b6b7;fill-opacity:1;fill-rule:nonzero;stroke:none"
             id="path412" />
        </g>
        <g
           id="g414"
           transform="translate(385.9216,492.9583)">
          <path
             d="m 0,0 c 0,-1.799 -1.458,-3.257 -3.256,-3.257 -1.799,0 -3.257,1.458 -3.257,3.257 0,1.798 1.458,3.256 3.257,3.256 C -1.458,3.256 0,1.798 0,0"
             style="fill:#97b6b7;fill-opacity:1;fill-rule:nonzero;stroke:none"
             id="path416" />
        </g>
        <g
           id="g418"
           transform="translate(237.8239,492.9583)">
          <path
             d="m 0,0 c 0,-1.799 -1.458,-3.257 -3.256,-3.257 -1.799,0 -3.257,1.458 -3.257,3.257 0,1.798 1.458,3.256 3.257,3.256 C -1.458,3.256 0,1.798 0,0"
             style="fill:#97b6b7;fill-opacity:1;fill-rule:nonzero;stroke:none"
             id="path420" />
        </g>
        <g
           id="g422"
           transform="translate(437.6941,337.9769)">
          <path
             d="m 0,0 c -0.911,-3.438 -2.128,-6.726 -3.525,-9.91 -20.145,-37.57 -56.343,-65.888 -99.635,-74.664 -65.71,-13.144 -133.098,21.714 -160.952,82.468 -12.948,28.442 -15.724,59.665 -9.676,89.015 l 0.055,0.041 c 2.264,9.14 7.876,21.032 12.096,29.708 2.124,4.367 4.029,8.582 7.637,11.786 2.523,2.24 5.227,4.333 8.084,6.117 1.664,1.039 3.837,2.063 5.824,0.773 2.498,-1.622 3.393,1.542 5.398,1.484 3.53,-0.1 7.048,0.616 10.614,0.244 0.839,-0.088 2.492,-0.428 2.601,1.167 0.079,1.176 -1.203,1.354 -2.105,1.657 -1.117,0.375 -2.248,0.705 -3.898,1.217 2.036,2.051 4.069,1.021 5.716,1.715 0.858,0.361 1.751,0.764 1.58,1.677 -0.168,0.898 -1.188,0.702 -1.842,0.434 -2.289,-0.94 -2.752,-0.117 -1.833,1.896 0.66,1.448 -0.538,4.104 3.162,3.741 1.176,-0.114 2.835,3.731 2.732,6.045 -0.194,4.415 2.057,8.514 1.347,12.938 -0.044,0.275 0.244,0.665 0.474,0.913 1.942,2.102 3.837,4.512 5.931,6.121 9.332,7.173 17.065,13.28 27.101,17.364 48.451,18.021 105.457,9.109 145.63,-25.277 1.48,-1.269 2.902,-2.6 4.331,-3.925 -0.262,-0.137 -0.524,-0.318 -0.788,-0.605 -0.876,-0.952 -2.582,-1.535 -2.163,-3.165 0.522,-2.033 2.584,-1.531 4.005,-1.798 2.089,-0.393 3.83,-1.18 5.35,-2.664 0.692,-0.677 1.59,-1.495 2.59,-0.863 10.577,-11.671 19.305,-24.991 25.639,-39.455 0.648,-1.477 1.22,-2.959 1.802,-4.439 C 2.438,111.049 1.7,110.332 1.212,109.108 2.313,107.952 3.63,107.377 4.955,107.25 6.9,101.699 8.475,96.119 9.68,90.487 9.229,84.855 6.776,77.313 5.97,73.083 5.259,69.349 4.285,65.62 2.962,62.063 2.586,61.05 2.094,59.96 1.383,59.081 c -0.771,2.246 -3.5,3.301 -5.44,2.346 -0.292,-1.387 0.389,-1.802 0.598,-2.686 0.842,-0.055 0.748,1.175 1.194,0 -0.898,0.301 -0.529,-0.665 -0.597,-1.192 0.633,0.04 1.157,-0.019 1.654,-0.086 -0.164,-0.033 -0.318,-0.081 -0.496,-0.095 -3.346,-0.27 -1.968,-3.711 -3.797,-5.038 -3.221,-2.339 -5.867,-5.396 -9.307,-7.517 -0.808,-0.499 -2.518,-1.333 -1.518,-2.83 0.738,-1.105 2.004,-0.383 3.018,-0.033 1.254,0.434 2.492,0.918 4.317,1.596 -0.406,-3.232 -2.93,-3.711 -3.924,-5.464 -0.517,-0.911 -1.037,-1.886 -0.256,-2.583 0.768,-0.686 1.544,0.19 1.942,0.88 1.398,2.414 2.376,1.997 2.942,-0.432 0.187,-0.809 0.905,-1.576 1.273,-2.385 -0.254,-0.463 -0.291,-1.039 -0.009,-1.713 -0.247,-0.445 -0.707,-0.912 -1.513,-1.416 -1.129,-0.706 0.035,-5.28 1.718,-7.275 3.211,-3.806 4.02,-9.012 7.697,-12.473 C 1.107,10.469 1.118,9.923 1.084,9.544 0.796,6.332 0.762,2.877 0,0 m 31.574,38.7 c -1.765,3.182 -0.128,3.218 1.984,5.78 3.128,3.81 6.297,8.346 6.297,13.485 0,3.993 -1.959,7.65 -4.224,10.801 -1.288,1.79 -2.704,3.477 -4.171,5.137 -2.177,2.464 -3.583,2.397 -1.842,5.565 4.415,8.126 8.923,17.401 1.842,25.425 -2.81,3.176 -6.375,5.622 -9.865,7.977 1.301,4.42 2.676,9.028 2.575,13.678 -0.192,9.324 -8.512,13.484 -16.082,16.625 -2.769,1.144 -3.917,0.552 -3.749,3.837 0.116,2.239 0.206,4.483 0.166,6.721 -0.05,3.918 -0.448,8.1 -2.497,11.538 -2.008,3.374 -5.484,5.308 -9.116,6.479 -1.997,0.655 -4.057,1.104 -6.117,1.468 -4.338,0.758 -4.045,0.695 -4.906,5.007 -1.585,7.983 -4.753,15.221 -13.52,16.792 -4.239,0.758 -8.616,0.489 -12.89,0.228 -3.955,-0.228 -5.409,7.562 -7.42,10.923 -4.157,6.968 -10.069,9.606 -18.052,8.166 -2.228,-0.399 -4.418,-1.005 -6.581,-1.65 -3.309,-0.979 -2.95,0.412 -4.842,2.924 -2.754,3.645 -5.988,7.468 -10.365,9.155 -7.882,3.065 -16.432,-2.831 -23,-6.53 -6.129,5.425 -13.868,13.498 -22.907,10.78 -3.891,-1.158 -7.225,-3.748 -10.251,-6.372 -2.383,-2.065 -2.318,-3.505 -5.355,-1.845 -1.984,1.086 -3.992,2.127 -6.092,2.988 -8.358,3.443 -14.939,1.109 -20.631,-5.653 -2.382,-2.818 -4.531,-8.688 -8.254,-7.66 -4.121,1.144 -8.344,2.333 -12.645,2.459 -9.078,0.283 -13.65,-6.376 -16.881,-13.947 -1.109,-2.598 -0.517,-3.783 -3.62,-3.603 -2.086,0.112 -4.183,0.18 -6.284,0.09 -3.836,-0.17 -7.906,-0.879 -10.982,-3.339 -2.796,-2.226 -4.38,-5.577 -5.412,-8.925 -1.09,-3.563 -0.796,-11.663 -4.478,-12.295 -6.904,-1.198 -15.969,-2.495 -19.754,-9.258 -1.918,-3.415 -2.216,-7.506 -2.175,-11.33 0.022,-2.203 0.166,-4.393 0.334,-6.583 -2.448,-0.991 -4.894,-2.019 -7.238,-3.244 -7.521,-3.939 -11.217,-9.723 -9.89,-18.348 0.565,-3.711 4.379,-10.819 1.301,-13.022 -3.722,-2.68 -7.572,-5.435 -10.43,-9.064 -5.769,-7.301 -2.679,-15.504 1.388,-22.818 1.78,-3.182 0.144,-3.218 -1.967,-5.798 -1.47,-1.759 -2.847,-3.603 -3.967,-5.609 -2.394,-4.228 -3.038,-8.826 -1.16,-13.381 1.624,-3.918 4.429,-7.265 7.212,-10.406 2.189,-2.459 3.566,-2.397 1.841,-5.565 -1.158,-2.149 -2.317,-4.311 -3.307,-6.55 -4.211,-9.469 -2.036,-16.716 5.986,-23.016 1.728,-1.351 3.541,-2.611 5.356,-3.837 -0.694,-2.328 -1.351,-4.676 -1.854,-7.059 -0.85,-4.079 -1.312,-8.624 0.567,-12.5 1.558,-3.246 4.482,-5.538 7.535,-7.288 1.723,-0.992 3.527,-1.857 5.356,-2.643 2.959,-1.297 5.833,-1.104 5.651,-4.645 -0.385,-7.601 -1.016,-17.383 6.117,-22.238 3.349,-2.293 7.496,-3.271 11.435,-3.967 2.937,-0.516 3.956,0.359 4.522,-2.849 0.488,-2.791 1.054,-5.587 1.994,-8.275 2.95,-8.463 9.659,-11.155 18.171,-11.155 2.215,0 4.416,0.102 6.63,0.247 3.257,0.192 2.692,-0.97 3.863,-3.711 1.779,-4.098 3.712,-8.355 6.852,-11.613 5.834,-6.054 14.113,-4.25 21.337,-2.101 3.851,1.15 6.195,-4.999 8.964,-7.749 2.535,-2.54 5.665,-4.717 9.333,-5.089 3.994,-0.413 7.934,1.055 11.475,2.742 2.151,1.032 4.238,2.176 6.31,3.347 3.131,1.764 3.272,0.131 5.756,-2.006 5.925,-5.115 12.966,-10.379 21.04,-6.932 3.826,1.638 7.086,4.42 10.135,7.202 2.872,2.616 8.14,-2.14 11.784,-3.361 7.675,-2.563 13.65,0.485 18.647,6.413 2.369,2.803 4.531,8.677 8.252,7.645 4.121,-1.157 8.359,-2.342 12.659,-2.472 9.08,-0.278 13.652,6.363 16.883,13.952 1.094,2.584 0.516,3.796 3.605,3.611 2.098,-0.125 4.197,-0.201 6.298,-0.099 3.836,0.166 7.904,0.876 10.996,3.334 5.95,4.766 6.697,13.893 7.804,20.866 6.979,1.203 16.135,2.069 20.823,8.123 2.355,3.024 3.013,6.991 3.152,10.724 0.078,2.15 -0.011,4.313 -0.153,6.466 -0.204,3.218 0.876,2.589 3.555,3.774 6.887,3.051 13.587,7.31 13.739,15.661 0.09,4.684 -1.301,9.32 -2.613,13.776 -1.006,3.374 0.089,2.935 2.665,4.828 1.635,1.198 3.257,2.432 4.79,3.774 6.477,5.636 8.937,12.299 5.665,20.538 -0.874,2.185 -1.956,4.29 -3.103,6.349"
             style="fill:#f2570a;fill-opacity:1;fill-rule:evenodd;stroke:none"
             id="path424" />
        </g>
        <g
           id="g426"
           transform="translate(203.7204,374.8665)">
          <path
             d="M 0,0 C -0.731,0.538 -1.439,1.112 -2.204,1.599 -3.565,2.464 -4.98,3.416 -6.449,1.821 -7.325,0.87 -9.03,0.287 -8.611,-1.344 c 0.522,-2.032 2.585,-1.53 4.005,-1.798 2.088,-0.392 3.83,-1.179 5.349,-2.664 0.767,-0.749 1.783,-1.69 2.913,-0.623 1.106,1.044 0.335,2.094 -0.404,2.954 C 2.22,-2.272 1.087,-1.156 0,0"
             style="fill:#f2570a;fill-opacity:1;fill-rule:evenodd;stroke:none"
             id="path428" />
        </g>
        <g
           id="g430"
           transform="translate(433.6374,418.4984)">
          <path
             d="M 0,0 C 1.166,-1.122 1.861,-2.718 4.178,-2.688 6.735,-1.03 0.969,2.782 0,0"
             style="fill:#f2570a;fill-opacity:1;fill-rule:evenodd;stroke:none"
             id="path432" />
        </g>
        <g
           id="g434"
           transform="translate(312.8239,491.7601)">
          <path
             d="M 0,0 C 1.166,-1.664 1.86,-4.03 4.178,-3.986 6.735,-1.528 0.969,4.125 0,0"
             style="fill:#f2570a;fill-opacity:1;fill-rule:evenodd;stroke:none"
             id="path436" />
        </g>
        <g
           id="g438"
           transform="translate(409.7741,377.1331)">
          <path
             d="M 0,0 C -0.044,0.247 -0.126,0.44 -0.219,0.592 -0.736,1.447 -2.037,1.781 -3.508,1.554 -4.016,1.457 -4.42,1.091 -4.533,0.625 c -0.143,-0.586 0.2,-1.24 0.832,-1.489 0.606,0.321 1.133,0.528 1.518,0.661 0.651,0.224 0.966,0.26 1.105,0.272 C -0.771,0.098 -0.421,0.085 0,0"
             style="fill:#f2570a;fill-opacity:1;fill-rule:evenodd;stroke:none"
             id="path440" />
        </g>
        <g
           id="g442"
           transform="translate(408.3425,368.5423)">
          <path
             d="M 0,0 C 0.146,-1.455 2.029,-2.604 2.866,-1.907 2.8,-0.381 1.785,0.188 0,0"
             style="fill:#f2570a;fill-opacity:1;fill-rule:evenodd;stroke:none"
             id="path444" />
        </g>
        <g
           id="g446"
           transform="translate(420.6052,358.6019)">
          <path
             d="M 0,0 C -2.656,0.976 -4.946,0.123 -5.487,-0.096 -6.056,-0.5 -6.195,-0.857 -6.211,-1.117 -6.31,-2.759 -1.727,-5.292 1.986,-4.216 2.895,-3.953 3.559,-3.53 3.924,-3.268 3.6,-2.724 2.418,-0.888 0,0"
             style="fill:#f2570a;fill-opacity:1;fill-rule:evenodd;stroke:none"
             id="path448" />
        </g>
        <g
           id="g450"
           transform="translate(181.7331,361.9827)">
          <path
             d="M 0,0 C -2.265,-1.03 -4.124,-3.449 -2.126,-5.434 0.806,-6.369 4.229,-0.758 0,0"
             style="fill:#f2570a;fill-opacity:1;fill-rule:evenodd;stroke:none"
             id="path452" />
        </g>
        <g
           id="g454"
           transform="translate(191.6638,399.5745)">
          <path
             d="m 0,0 c 0.056,1.009 -0.203,1.604 -0.546,1.968 -2.284,2.426 -12.514,-0.84 -15.011,-7.381 -0.44,-1.153 -0.548,-2.17 -0.582,-2.741 0.147,-0.591 0.441,-1.33 1.097,-1.783 2.259,-1.557 6.819,1.671 8.429,2.81 C -4.894,-5.909 -2.299,-3.717 0,0"
             style="fill:#f2570a;fill-opacity:1;fill-rule:evenodd;stroke:none"
             id="path456" />
        </g>
        <g
           id="g458"
           transform="translate(361.2927,318.3821)">
          <path
             d="m 0,0 c -2.33,-0.109 -5.008,-1.841 -4.799,-3.48 0.036,-0.277 0.189,-0.829 1.033,-1.433 0.375,-0.2 1.624,-0.812 2.938,-0.371 2.14,0.718 3.175,3.799 2.333,4.83 C 1.304,-0.208 0.896,0.041 0,0"
             style="fill:#f2570a;fill-opacity:1;fill-rule:evenodd;stroke:none"
             id="path460" />
        </g>
        <g
           id="g462"
           transform="translate(189.0183,340.4515)">
          <path
             d="m 0,0 c -1.955,-1.812 -4.266,-4.902 -3.507,-5.864 0.222,-0.282 1.034,-0.795 4.964,0.943 0.59,0.262 1.678,0.919 2.799,2.059 1.491,1.516 2.218,3.13 2.57,4.112 C 6.709,1.799 6.464,2.462 5.9,2.792 4.091,3.853 0.595,0.55 0,0"
             style="fill:#f2570a;fill-opacity:1;fill-rule:evenodd;stroke:none"
             id="path464" />
        </g>
        <g
           id="g466"
           transform="translate(417.7595,484.0843)">
          <path
             d="M 0,0 C -3.46,-1.574 -6.3,-5.269 -3.247,-8.301 1.23,-9.73 6.459,-1.157 0,0"
             style="fill:#f2570a;fill-opacity:1;fill-rule:evenodd;stroke:none"
             id="path468" />
        </g>
        <g
           id="g470"
           transform="translate(408.2478,457.14)">
          <path
             d="m 0,0 c -4.147,-2.097 -6.071,-5.145 -5.366,-6.843 0.565,-1.36 2.919,-2.096 4.656,-1.565 1.755,0.536 2.418,2.223 3.53,5.05 0.593,1.505 0.986,2.546 0.454,3.201 C 2.733,0.509 1.415,0.552 0,0"
             style="fill:#f2570a;fill-opacity:1;fill-rule:evenodd;stroke:none"
             id="path472" />
        </g>
        <g
           id="g474"
           transform="translate(430.948,437.1068)">
          <path
             d="M 0,0 C 2.701,0.877 4.166,3.515 4.906,5.471 5.345,6.631 4.383,7.851 3.15,7.718 2.115,7.605 0.912,7.287 -0.231,6.528 -2.782,4.836 -4.409,1.373 -3.456,0.168 -2.66,-0.838 -0.224,-0.072 0,0"
             style="fill:#f2570a;fill-opacity:1;fill-rule:evenodd;stroke:none"
             id="path476" />
        </g>
        <g
           id="g478"
           transform="translate(329.0359,476.1556)">
          <path
             d="M 0,0 C -4.673,-0.512 -5.971,-10.47 0.403,-8.905 2.925,-6.062 4.021,-1.532 0,0"
             style="fill:#f2570a;fill-opacity:1;fill-rule:evenodd;stroke:none"
             id="path480" />
        </g>
        <g
           id="g482"
           transform="translate(293.0652,488.8011)">
          <path
             d="m 0,0 c -3.494,0.437 -6.456,-2.367 -6.862,-5.432 -0.122,-0.921 0.537,-1.802 1.453,-1.952 1.027,-0.167 4.273,1.799 6.797,5.106 C 1.695,-1.261 1.055,-0.132 0,0"
             style="fill:#f2570a;fill-opacity:1;fill-rule:evenodd;stroke:none"
             id="path484" />
        </g>
        <g
           id="g486"
           transform="translate(257.5954,308.6634)">
          <path
             d="m 0,0 c -0.692,-0.127 -1.243,-0.604 -1.396,-1.211 -0.195,-0.765 0.272,-1.617 1.132,-1.942 0.826,0.419 1.543,0.689 2.069,0.862 0.885,0.293 1.316,0.338 1.505,0.355 0.419,0.038 0.894,0.02 1.468,-0.09 C 4.719,-1.704 4.605,-1.451 4.48,-1.254 3.774,-0.14 2.003,0.296 0,0"
             style="fill:#f2570a;fill-opacity:1;fill-rule:evenodd;stroke:none"
             id="path488" />
        </g>
        <g
           id="g490"
           transform="translate(343.2116,302.5677)">
          <path
             d="m 0,0 c -0.869,-0.159 -1.562,-0.759 -1.755,-1.521 -0.244,-0.961 0.342,-2.032 1.424,-2.441 1.037,0.526 1.938,0.866 2.599,1.083 1.112,0.368 1.653,0.426 1.89,0.446 0.527,0.047 1.124,0.026 1.845,-0.113 C 5.929,-2.142 5.787,-1.824 5.63,-1.576 4.743,-0.176 2.517,0.372 0,0"
             style="fill:#f2570a;fill-opacity:1;fill-rule:evenodd;stroke:none"
             id="path492" />
        </g>
        <g
           id="g494"
           transform="translate(289.9538,309.2288)">
          <path
             d="m 0,0 c -1.411,-0.521 -1.997,-2.118 -2.086,-2.372 -0.064,-1.717 0.336,-2.564 0.726,-3.02 0.657,-0.769 1.48,-0.621 1.873,-1.448 0.223,-0.471 0.268,-1.159 -0.025,-2.255 0.954,0.057 1.572,0.456 1.899,0.725 1.46,1.194 2.067,3.785 1.527,6.517 C 2.984,-0.222 1.381,0.51 0,0"
             style="fill:#f2570a;fill-opacity:1;fill-rule:evenodd;stroke:none"
             id="path496" />
        </g>
        <g
           id="g498"
           transform="translate(205.7683,467.223)">
          <path
             d="m 0,0 c -1.228,-0.474 -1.737,-1.926 -1.815,-2.156 -0.056,-1.562 0.292,-2.331 0.631,-2.747 0.572,-0.7 1.288,-0.564 1.63,-1.316 0.195,-0.428 0.234,-1.054 -0.021,-2.052 0.831,0.052 1.368,0.417 1.652,0.66 1.271,1.087 1.8,3.442 1.329,5.926 C 2.597,-0.201 1.202,0.464 0,0"
             style="fill:#f2570a;fill-opacity:1;fill-rule:evenodd;stroke:none"
             id="path500" />
        </g>
        <g
           id="g502"
           transform="translate(236.2693,468.1585)">
          <path
             d="M 0,0 C -0.822,-1.969 -2.451,-3.585 -1.308,-6.417 1.95,-8.768 3.881,0.139 0,0"
             style="fill:#f2570a;fill-opacity:1;fill-rule:evenodd;stroke:none"
             id="path504" />
        </g>
      </g>
    </g>
  </g>
</svg>
